<svg width="70" height="70" viewBox="0 0 70 70" fill="none" xmlns="http://www.w3.org/2000/svg">
<path d="M45.9045 46.5654C45.2955 46.5304 44.6697 46.571 44.0789 46.4478C42.5557 46.1314 41.4511 44.8798 41.3545 43.3076C41.2999 42.4186 40.8911 41.979 40.0847 41.7102C39.2559 41.433 38.4523 41.069 37.6613 40.6952C37.0565 40.4096 36.5623 40.488 36.0443 40.8968C34.2047 42.3458 32.5163 42.2408 30.8657 40.6028C30.4135 40.1534 29.9473 39.7152 29.5217 39.2406C28.3317 37.9148 28.2365 36.0878 29.3747 34.7298C29.9935 33.9906 30.1013 33.3396 29.6463 32.4884C29.2599 31.766 28.9771 30.9834 28.7083 30.2064C28.4787 29.5442 28.0629 29.225 27.3741 29.1466C25.1047 28.889 23.9357 27.5562 23.9287 25.2616C23.9273 24.703 23.9175 24.1444 23.9315 23.5872C23.9791 21.6482 25.3007 20.1936 27.2341 20.0382C28.0363 19.9738 28.4871 19.6406 28.7447 18.8818C29.0247 18.0544 29.3817 17.248 29.7555 16.457C30.0621 15.8074 30.0215 15.2642 29.5609 14.6916C28.1497 12.9346 28.2715 11.1846 29.8787 9.58017C30.3113 9.14757 30.7383 8.70937 31.1863 8.29217C32.5359 7.03217 34.4231 6.92297 35.8245 8.12137C36.5483 8.74157 37.1797 8.78077 37.9917 8.35517C38.7169 7.97437 39.4995 7.69577 40.2723 7.41437C40.9499 7.16657 41.2845 6.74097 41.3433 6.00317C41.5029 3.98577 42.8931 2.69637 44.9049 2.64737C45.5699 2.63057 46.2349 2.63057 46.8999 2.64737C48.8977 2.69637 50.2403 3.93537 50.4251 5.93597C50.4937 6.68357 50.8199 7.15257 51.5353 7.41717C52.4313 7.74897 53.3063 8.13677 54.1799 8.52317C54.7525 8.77657 55.2397 8.70657 55.7325 8.31457C57.5161 6.89917 59.3347 7.00557 60.9307 8.59597C61.3451 9.00897 61.7651 9.41637 62.1711 9.83777C63.4801 11.1958 63.5655 13.181 62.3139 14.6048C61.7511 15.2446 61.7175 15.8326 62.0759 16.5648C62.4497 17.325 62.7577 18.1202 63.0559 18.9154C63.3163 19.6112 63.7433 19.9738 64.5217 20.0354C66.5265 20.1936 67.8033 21.6146 67.8257 23.632C67.8341 24.3502 67.8439 25.0684 67.8201 25.7852C67.7613 27.566 66.4635 28.9856 64.6869 29.1186C63.7923 29.1858 63.2827 29.5582 63.0055 30.4094C62.7521 31.1892 62.4091 31.9438 62.0521 32.6844C61.7273 33.3578 61.7455 33.9178 62.2551 34.5128C63.5977 36.0808 63.5081 37.9652 62.0647 39.4548C61.6027 39.9322 61.1407 40.4124 60.6577 40.8674C59.2717 42.1764 57.4167 42.2814 55.9607 41.0536C55.2635 40.4656 54.6503 40.4138 53.8621 40.8198C53.0851 41.2188 52.2157 41.44 51.4499 41.8558C51.0537 42.0714 50.6015 42.4914 50.5035 42.8974C49.7769 45.9046 49.0195 46.536 45.9059 46.5668L45.9045 46.5654ZM32.3525 15.491C32.1201 16.226 31.9899 16.7384 31.7981 17.227C31.4887 18.018 31.0841 18.7754 30.8195 19.579C30.2749 21.2422 29.1563 22.1046 27.4287 22.2418C26.6139 22.3062 26.1841 22.7682 26.1477 23.5858C26.1253 24.0898 26.1407 24.5966 26.1421 25.1006C26.1421 26.4992 26.4403 26.838 27.8025 27.0032C29.2319 27.1768 30.1895 27.944 30.7033 29.2866C30.9875 30.03 31.2241 30.8028 31.6007 31.4986C32.4925 33.1478 32.3819 34.6388 31.1191 36.0486C30.6151 36.6114 30.6641 37.2176 31.1653 37.7678C31.5587 38.2004 31.9787 38.6078 32.3945 39.0208C33.2779 39.8972 33.7315 39.9168 34.7241 39.1342C35.9253 38.1864 37.2063 38.0268 38.5979 38.7044C39.2895 39.0418 39.9895 39.3862 40.7217 39.6102C42.4815 40.1492 43.4405 41.2692 43.5427 43.127C43.5819 43.8326 44.0229 44.2456 44.7257 44.2974C45.3347 44.3422 45.9479 44.3254 46.5597 44.3226C47.8351 44.3142 48.1319 44.037 48.2817 42.7602C48.4525 41.3056 49.2141 40.313 50.5917 39.7908C51.3365 39.508 52.1093 39.2686 52.8037 38.8906C54.4515 37.9904 55.9425 38.1108 57.3593 39.3554C57.9207 39.8496 58.5367 39.8048 59.0869 39.3148C59.5433 38.9088 59.9675 38.4664 60.3973 38.0324C61.1659 37.2568 61.1967 36.6576 60.4883 35.805C59.4733 34.5842 59.3907 33.2668 60.0235 31.8556C60.3063 31.2256 60.6479 30.6124 60.8439 29.9572C61.3801 28.1652 62.4399 27.0746 64.3929 26.9444C65.2371 26.8884 65.6109 26.4152 65.6445 25.5724C65.6683 24.962 65.6627 24.3488 65.6487 23.7384C65.6235 22.7066 65.2539 22.3342 64.2039 22.2292C62.6527 22.0738 61.6013 21.2702 61.0539 19.8016C60.7851 19.0806 60.5247 18.3512 60.1789 17.6666C59.3795 16.086 59.3865 14.623 60.6017 13.2342C61.1631 12.593 61.1211 11.9266 60.5485 11.3008C60.1901 10.9088 59.8009 10.5448 59.4201 10.1724C58.5465 9.31977 58.0103 9.28897 57.0653 10.0478C55.8599 11.018 54.5663 11.109 53.1831 10.4734C52.5321 10.1738 51.8853 9.84757 51.2035 9.63757C49.4115 9.08457 48.3545 7.98557 48.2299 6.04937C48.1781 5.25137 47.7217 4.88317 46.9069 4.85097C46.2699 4.82577 45.6301 4.83277 44.9931 4.84817C44.0313 4.87197 43.6085 5.26957 43.5231 6.25377C43.3817 7.89037 42.5221 8.94457 40.9877 9.49197C40.3129 9.73277 39.6213 9.95537 38.9927 10.29C37.3841 11.1482 35.9099 11.102 34.5015 9.86297C33.8827 9.31837 33.2513 9.36737 32.6409 9.92457C32.1901 10.3362 31.7631 10.7772 31.3417 11.2196C30.6081 11.9896 30.6515 12.4334 31.2409 13.3154C31.7113 14.0196 32.0221 14.8316 32.3525 15.491Z" fill="#C2D92C"/>
<path d="M6.5184 56.9129C6.8026 56.2927 7.0238 55.4737 7.504 54.8563C8.0668 54.1325 8.1172 53.5319 7.7182 52.7465C7.3346 51.9919 7.049 51.1855 6.7494 50.3903C6.5072 49.7491 6.0942 49.4215 5.3914 49.3599C3.262 49.1723 2.03 47.8031 2.016 45.6667C2.0118 44.9485 1.9936 44.2289 2.0258 43.5135C2.1014 41.8209 3.395 40.3999 5.0862 40.2795C6.0956 40.2067 6.6164 39.7643 6.8964 38.8207C7.1134 38.0871 7.455 37.3857 7.7924 36.6941C8.1228 36.0179 8.0808 35.4593 7.574 34.8685C6.2566 33.3299 6.3364 31.4343 7.735 29.9853C8.197 29.5065 8.6604 29.0291 9.1378 28.5671C10.5392 27.2091 12.4054 27.0887 13.8936 28.3403C14.5922 28.9283 15.211 28.9689 15.9964 28.5629C16.7482 28.1751 17.5518 27.8755 18.3526 27.5927C19.0162 27.3589 19.3186 26.9179 19.4082 26.2431C19.4712 25.7755 19.5076 25.2365 19.7652 24.8851C19.9822 24.5897 20.5436 24.3307 20.8782 24.4021C21.2114 24.4735 21.7042 24.9887 21.6888 25.2869C21.6314 26.4391 21.581 27.6305 20.7452 28.5853C20.006 29.4295 15.7724 31.2565 14.6706 31.0367C13.972 30.8967 13.279 30.5453 12.677 30.1463C11.8048 29.5681 11.3302 29.5275 10.57 30.2471C10.1444 30.6489 9.73 31.0619 9.3268 31.4861C8.7304 32.1119 8.6618 32.7769 9.2176 33.4097C10.4594 34.8223 10.4636 36.3063 9.6432 37.9135C9.3058 38.5729 9.0664 39.2827 8.806 39.9785C8.2726 41.4065 7.2912 42.2451 5.747 42.4019C4.5304 42.5251 4.2014 42.9129 4.1916 44.1575C4.1874 44.7161 4.1734 45.2761 4.2014 45.8319C4.2434 46.6341 4.6438 47.0947 5.4194 47.1437C7.2772 47.2613 8.3832 48.2483 8.9306 49.9871C9.1448 50.6675 9.464 51.3185 9.7678 51.9667C10.4524 53.4269 10.3894 54.7849 9.3198 56.0547C8.645 56.8555 8.6856 57.4645 9.4248 58.2233C9.8336 58.6419 10.2368 59.0675 10.6722 59.4581C11.2938 60.0167 11.9224 60.0755 12.5384 59.5351C13.9804 58.2695 15.4784 58.2583 17.1038 59.1361C17.7072 59.4623 18.3736 59.6765 19.0246 59.9089C20.552 60.4549 21.4284 61.4895 21.5768 63.1331C21.672 64.1817 22.0724 64.5317 23.1154 64.5499C23.7272 64.5611 24.3404 64.5695 24.9508 64.5443C25.7796 64.5107 26.2528 64.0893 26.3032 63.2745C26.4152 61.4839 27.3588 60.4017 29.029 59.8445C29.7822 59.5939 30.5074 59.2509 31.2298 58.9177C32.6172 58.2793 33.908 58.3829 35.1134 59.3489C36.0752 60.1203 36.582 60.0937 37.4528 59.2285C37.849 58.8351 38.2578 58.4529 38.6316 58.0399C39.1916 57.4197 39.2392 56.8723 38.7058 56.2605C37.4906 54.8675 37.3324 53.4087 38.2144 51.7791C38.591 51.0833 38.7996 50.2979 39.1314 49.5741C39.3386 49.1219 39.5822 48.6641 39.9056 48.2931C40.2836 47.8605 40.8128 47.8367 41.2734 48.1909C41.7172 48.5325 41.8516 48.9973 41.6094 49.5391C41.0788 50.7249 40.5636 51.9177 40.026 53.0993C39.7642 53.6747 39.858 54.1619 40.2388 54.6533C41.706 56.5461 41.594 58.1827 39.8986 59.8851C39.4856 60.2995 39.081 60.7237 38.6526 61.1213C37.2946 62.3785 35.4144 62.4821 34.013 61.2795C33.2878 60.6579 32.6578 60.6229 31.8472 61.0499C31.122 61.4321 30.338 61.7079 29.5652 61.9893C28.889 62.2371 28.553 62.6599 28.4956 63.4005C28.3374 65.4207 26.9514 66.7003 24.9284 66.7479C24.2368 66.7647 23.5438 66.7717 22.8536 66.7451C20.93 66.6709 19.5874 65.4319 19.4208 63.5321C19.3494 62.7173 19.005 62.2231 18.2168 61.9515C17.3656 61.6589 16.5424 61.2781 15.722 60.9029C15.1256 60.6299 14.6188 60.6775 14.098 61.0947C12.3284 62.5129 10.4944 62.4135 8.9096 60.7895C8.2278 60.0909 7.5684 59.3559 7.007 58.5621C6.7354 58.1771 6.7144 57.6157 6.5198 56.9171L6.5184 56.9129Z" fill="#C2D92C"/>
<path d="M24.8627 58.0285C17.1417 57.9571 11.4101 52.8443 10.8011 46.3721C10.1347 39.2937 14.5013 33.2387 21.2745 31.8275C23.0175 31.4649 24.7535 31.4355 26.4965 31.8093C27.4303 32.0095 27.8461 32.4771 27.7033 33.1673C27.5591 33.8645 27.0005 34.1361 26.0667 33.9653C20.0425 32.8593 14.3823 36.6253 13.1391 42.5655C11.9099 48.4399 15.7865 54.3857 21.6245 55.5799C27.7061 56.8231 33.5763 52.9857 34.7523 46.9811C34.8839 46.3063 34.9175 45.6119 34.9987 44.9259C35.0953 44.0971 35.5153 43.6827 36.1943 43.7415C36.8397 43.7975 37.2163 44.2385 37.1799 45.0351C36.9405 50.2515 34.5185 54.1211 29.9279 56.6047C28.0435 57.6239 25.9939 58.0355 24.8627 58.0299V58.0285Z" fill="#C2D92C"/>
<path d="M10.4901 12.6253C10.4901 10.2831 10.4901 8.05427 10.4901 5.82407C10.4901 4.54448 10.8163 4.21408 12.0805 4.21268C15.4041 4.21128 18.7277 4.21268 22.0513 4.21268C22.1843 4.21268 22.3173 4.20848 22.4503 4.21548C23.1951 4.25048 23.6655 4.66628 23.6781 5.29908C23.6907 5.92907 23.2259 6.40368 22.4811 6.41768C20.9929 6.44428 19.5033 6.42747 18.0137 6.42747C16.2875 6.42747 14.5613 6.42747 12.7693 6.42747V12.6253C13.4861 12.6253 14.1721 12.6057 14.8567 12.6295C15.9333 12.6673 16.4009 13.4317 15.8717 14.3739C14.8063 16.2737 13.7073 18.1567 12.5817 20.0229C12.0609 20.8867 11.1173 20.8881 10.5909 20.0215C9.4611 18.1595 8.3621 16.2765 7.2897 14.3795C6.7633 13.4485 7.2337 12.6701 8.3033 12.6309C8.9893 12.6057 9.6781 12.6267 10.4901 12.6267V12.6253ZM10.0967 14.8359C10.6189 15.7235 11.0767 16.5033 11.5989 17.3895C12.1309 16.4529 12.5649 15.6857 13.0479 14.8359H10.0981H10.0967Z" fill="#C2D92C"/>
<path d="M59.0478 54.9288C59.0478 56.5136 59.0478 57.9948 59.0478 59.476C59.0478 60.3524 59.0632 61.2302 59.0422 62.1066C59.0226 62.906 58.6586 63.3036 57.8704 63.3078C54.2822 63.3246 50.6926 63.3232 47.1044 63.3106C46.3344 63.3078 45.9032 62.8836 45.899 62.227C45.8948 61.5676 46.3176 61.1546 47.103 61.1504C50.0542 61.135 53.004 61.1182 55.9552 61.1588C56.6916 61.1686 56.91 60.9614 56.8876 60.2278C56.8358 58.5058 56.8708 56.781 56.8708 54.933C56.1736 54.933 55.5464 54.9414 54.9192 54.9316C53.5724 54.9106 53.1132 54.1672 53.767 53.0206C54.8058 51.1978 55.8642 49.3848 56.9352 47.5802C57.4952 46.6352 58.4318 46.638 59.0016 47.5928C60.1034 49.4408 61.1898 51.2986 62.258 53.1676C62.7872 54.093 62.342 54.87 61.2626 54.926C60.5556 54.9624 59.8444 54.933 59.0478 54.933V54.9288ZM59.4468 52.6902C58.9386 51.8194 58.4906 51.0522 57.967 50.1576C57.4294 51.0788 56.9856 51.839 56.4886 52.6902H59.4454H59.4468Z" fill="#C2D92C"/>
<path d="M25.0599 51.1911C25.0473 51.4137 25.0473 51.6517 25.0179 51.8869C24.9423 52.5001 24.591 52.8683 23.9736 52.8837C23.3604 52.8991 22.8899 52.5561 22.8857 51.9513C22.8801 51.2933 22.5778 51.0749 22.0332 50.8383C20.8628 50.3287 20.2803 49.3305 20.1207 48.0915C20.0283 47.3733 20.4385 46.8231 21.0783 46.7685C21.7769 46.7083 22.2081 47.0611 22.3005 47.7401C22.3887 48.3897 22.6408 48.8965 23.3282 48.9721C24.0268 49.0491 24.9186 49.2619 25.2853 48.5101C25.5542 47.9599 25.5542 47.1507 25.3666 46.5529C25.2658 46.2295 24.5392 46.0461 24.0632 45.9089C23.3114 45.6919 22.4489 45.7241 21.7853 45.3685C20.3489 44.6013 19.9919 43.2069 20.1179 41.6795C20.2341 40.2697 20.8949 39.2001 22.2459 38.6653C22.6757 38.4945 22.8549 38.2915 22.8605 37.8113C22.8689 37.1281 23.2875 36.7109 23.982 36.7291C24.6848 36.7473 25.0445 37.1953 25.0221 37.8827C25.0081 38.3041 25.1734 38.4651 25.5528 38.6135C26.852 39.1203 27.6164 40.0779 27.7494 41.4863C27.8222 42.2577 27.4637 42.7631 26.8408 42.8485C26.1926 42.9367 25.7376 42.5811 25.6074 41.8027C25.4982 41.1503 25.2 40.6673 24.5224 40.6197C23.8042 40.5693 22.8647 40.3285 22.5483 41.1951C22.3313 41.7915 22.4265 42.6021 22.6533 43.2167C22.7597 43.5051 23.5003 43.6703 23.9637 43.6927C24.9745 43.7431 25.9153 43.8775 26.6867 44.6111C28.7881 46.6075 27.9663 50.0109 25.0655 51.1897L25.0599 51.1911Z" fill="#C2D92C"/>
<path d="M32.6452 24.6232C32.6102 17.318 38.4986 11.4156 45.864 11.3708C53.1384 11.3274 59.0926 17.2102 59.1388 24.4888C59.1864 31.7926 53.2434 37.8378 45.9956 37.8588C38.64 37.8798 32.6802 31.9704 32.6452 24.6232ZM44.7874 18.207C44.6516 18.2644 44.534 18.3288 44.4108 18.3652C41.4918 19.208 41.5016 23.5214 43.2614 24.8878C44.0734 25.5178 44.9708 25.7026 45.9508 25.6788C46.5388 25.6648 47.2038 25.7264 47.3368 26.3508C47.4712 26.978 47.4922 27.762 47.2248 28.3136C46.8538 29.0752 45.9564 28.8358 45.2662 28.7644C44.5872 28.6944 44.3282 28.1708 44.2442 27.524C44.156 26.8352 43.7276 26.4684 43.0304 26.5552C42.3164 26.6434 42.0546 27.153 42.0994 27.8152C42.1988 29.2586 42.9576 30.247 44.2848 30.7804C44.6516 30.9274 44.842 31.0758 44.8252 31.507C44.7986 32.193 45.1556 32.641 45.8598 32.6634C46.557 32.6858 46.9742 32.27 46.9854 31.5882C46.9938 31.1066 47.1744 30.905 47.6028 30.7356C48.951 30.1994 49.616 29.1312 49.7336 27.7228C49.861 26.1954 49.504 24.801 48.0704 24.031C47.4068 23.6754 46.5486 23.6964 45.794 23.4892C45.3348 23.3632 44.6236 23.2232 44.5228 22.9222C44.3212 22.3216 44.2652 21.5222 44.5074 20.9594C44.8616 20.1376 45.78 20.349 46.5052 20.426C47.1926 20.4988 47.4516 21.0014 47.5398 21.651C47.6308 22.33 48.0578 22.6884 48.755 22.6338C49.392 22.5848 49.812 22.0304 49.7238 21.3178C49.5698 20.0788 48.9916 19.082 47.8254 18.5612C47.2976 18.3246 46.9532 18.1356 46.9602 17.4594C46.9658 16.8574 46.501 16.5018 45.8864 16.5116C45.227 16.5214 44.8742 16.9134 44.8168 17.5658C44.7986 17.7758 44.7958 17.9872 44.786 18.2098L44.7874 18.207Z" fill="#C2D92C"/>
</svg>
