<?xml version="1.0" encoding="UTF-8"?>
<svg xmlns="http://www.w3.org/2000/svg" xmlns:xlink="http://www.w3.org/1999/xlink" width="100px" height="100px" viewBox="0 0 100 98" version="1.1">
<g id="surface2">
<path style=" stroke:none;fill-rule:nonzero;fill:rgb(100%,100%,100%);fill-opacity:1;" d="M 96.46875 32.414062 C 89.3125 52.433594 82.0625 72.355469 74.808594 92.375 C 74.714844 92.753906 74.332031 92.945312 73.949219 92.945312 C 61.070312 93.230469 48.1875 93.519531 35.304688 93.804688 C 35.113281 93.804688 34.921875 93.707031 34.828125 93.707031 C 24.808594 87.511719 14.695312 81.410156 4.675781 75.214844 C 4.390625 75.023438 4.199219 74.738281 4.199219 74.453125 C 4.675781 51.667969 5.058594 28.980469 5.4375 6.199219 C 5.4375 5.722656 5.820312 5.339844 6.296875 5.339844 L 75.574219 3.625 C 84.445312 15.824219 87.5 20.117188 96.46875 32.414062 Z M 96.46875 32.414062 "/>
<path style=" stroke:none;fill-rule:nonzero;fill:rgb(79.607843%,86.27451%,7.45098%);fill-opacity:1;" d="M 76.910156 1.242188 L 4.007812 3.050781 C 3.53125 3.050781 3.148438 3.433594 3.148438 3.910156 C 2.765625 27.933594 2.289062 51.859375 1.910156 75.785156 C 1.910156 76.074219 2.097656 76.359375 2.386719 76.550781 C 12.976562 83.03125 23.570312 89.515625 34.066406 95.902344 C 34.253906 95.996094 34.351562 95.996094 34.542969 95.996094 C 48.089844 95.710938 61.640625 95.425781 75.285156 95.136719 C 75.667969 95.136719 75.953125 94.949219 76.144531 94.566406 C 83.777344 73.5 91.316406 52.527344 98.949219 31.460938 C 89.503906 18.589844 86.257812 14.109375 76.910156 1.242188 Z M 74.808594 92.375 C 74.714844 92.753906 74.332031 92.945312 73.949219 92.945312 C 61.070312 93.230469 48.1875 93.519531 35.304688 93.804688 C 35.113281 93.804688 34.921875 93.707031 34.828125 93.707031 C 24.808594 87.511719 14.695312 81.410156 4.675781 75.214844 C 4.390625 75.023438 4.199219 74.738281 4.199219 74.453125 C 4.675781 51.667969 5.058594 28.980469 5.4375 6.199219 C 5.4375 5.722656 5.820312 5.339844 6.296875 5.339844 L 75.574219 3.625 C 84.445312 15.921875 87.5 20.210938 96.375 32.507812 C 89.21875 52.433594 81.964844 72.355469 74.808594 92.375 Z M 74.808594 92.375 "/>
<path style=" stroke:none;fill-rule:nonzero;fill:rgb(21.960784%,57.647059%,60.784314%);fill-opacity:1;" d="M 58.875 18.589844 C 56.203125 23.738281 58.015625 28.789062 62.117188 32.316406 C 64.3125 34.222656 66.890625 35.652344 69.75 36.417969 C 70.039062 36.511719 70.417969 36.417969 70.800781 36.320312 C 73.1875 35.558594 75.382812 34.414062 77.289062 32.984375 C 83.683594 42.996094 83.96875 59.007812 73.378906 70.449219 C 62.214844 82.460938 44.464844 84.175781 31.203125 74.546875 C 18.511719 65.300781 14.503906 47.570312 22.136719 33.746094 C 30.152344 19.351562 46.277344 14.683594 58.875 18.589844 Z M 50 52.910156 C 47.328125 52.910156 44.65625 52.910156 41.890625 52.910156 C 38.074219 53.003906 35.210938 56.722656 36.164062 60.4375 C 36.925781 63.488281 39.027344 65.300781 41.984375 66.0625 C 46.753906 67.304688 51.621094 67.207031 56.488281 66.445312 C 58.683594 66.0625 60.6875 65.207031 62.117188 63.488281 C 63.929688 61.390625 64.503906 59.105469 63.453125 56.53125 C 62.308594 53.957031 60.210938 52.8125 57.441406 52.8125 C 54.960938 52.910156 52.480469 52.910156 50 52.910156 Z M 40.265625 40.515625 C 40.171875 45.855469 44.5625 50.238281 49.90625 50.335938 C 55.152344 50.429688 59.636719 46.042969 59.734375 40.707031 C 59.828125 35.367188 55.4375 30.984375 50.09375 30.886719 C 44.75 30.886719 40.363281 35.175781 40.265625 40.515625 Z M 40.265625 40.515625 "/>
<path style=" stroke:none;fill-rule:nonzero;fill:rgb(21.960784%,57.647059%,60.784314%);fill-opacity:1;" d="M 70.132812 19.542969 C 71.085938 18.589844 72.136719 17.921875 73.378906 17.734375 C 76.335938 17.351562 78.816406 19.351562 79.101562 22.402344 C 79.390625 25.074219 78.246094 27.171875 76.429688 28.980469 C 74.714844 30.695312 72.710938 31.839844 70.515625 32.699219 C 70.230469 32.792969 69.941406 32.792969 69.75 32.699219 C 66.984375 31.652344 64.503906 30.125 62.691406 27.742188 C 61.257812 25.835938 60.589844 23.738281 61.355469 21.355469 C 62.40625 17.734375 66.222656 16.492188 69.273438 18.6875 C 69.5625 19.066406 69.847656 19.257812 70.132812 19.542969 Z M 70.132812 19.542969 "/>
</g>
</svg>
