<?xml version="1.0" encoding="UTF-8"?>
<svg xmlns="http://www.w3.org/2000/svg" xmlns:xlink="http://www.w3.org/1999/xlink" width="100px" height="100px" viewBox="0 0 100 98" version="1.1">
<g id="surface2">
<path style=" stroke:none;fill-rule:nonzero;fill:rgb(100%,100%,100%);fill-opacity:1;" d="M 96.46875 32.414062 C 89.3125 52.433594 82.0625 72.355469 74.808594 92.375 C 74.714844 92.753906 74.332031 92.945312 73.949219 92.945312 C 61.070312 93.230469 48.1875 93.519531 35.304688 93.804688 C 35.113281 93.804688 34.921875 93.707031 34.828125 93.707031 C 24.808594 87.511719 14.695312 81.410156 4.675781 75.214844 C 4.390625 75.023438 4.199219 74.738281 4.199219 74.453125 C 4.675781 51.667969 5.058594 28.980469 5.4375 6.199219 C 5.4375 5.722656 5.820312 5.339844 6.296875 5.339844 L 75.574219 3.625 C 84.445312 15.824219 87.5 20.117188 96.46875 32.414062 Z M 96.46875 32.414062 "/>
<path style=" stroke:none;fill-rule:nonzero;fill:rgb(79.607843%,86.27451%,7.45098%);fill-opacity:1;" d="M 76.910156 1.242188 L 4.007812 3.050781 C 3.53125 3.050781 3.148438 3.433594 3.148438 3.910156 C 2.765625 27.933594 2.289062 51.859375 1.910156 75.785156 C 1.910156 76.074219 2.097656 76.359375 2.386719 76.550781 C 12.976562 83.03125 23.570312 89.515625 34.066406 95.902344 C 34.253906 95.996094 34.351562 95.996094 34.542969 95.996094 C 48.089844 95.710938 61.640625 95.425781 75.285156 95.136719 C 75.667969 95.136719 75.953125 94.949219 76.144531 94.566406 C 83.777344 73.5 91.316406 52.527344 98.949219 31.460938 C 89.503906 18.589844 86.257812 14.109375 76.910156 1.242188 Z M 74.808594 92.375 C 74.714844 92.753906 74.332031 92.945312 73.949219 92.945312 C 61.070312 93.230469 48.1875 93.519531 35.304688 93.804688 C 35.113281 93.804688 34.921875 93.707031 34.828125 93.707031 C 24.808594 87.511719 14.695312 81.410156 4.675781 75.214844 C 4.390625 75.023438 4.199219 74.738281 4.199219 74.453125 C 4.675781 51.667969 5.058594 28.980469 5.4375 6.199219 C 5.4375 5.722656 5.820312 5.339844 6.296875 5.339844 L 75.574219 3.625 C 84.445312 15.921875 87.5 20.210938 96.375 32.507812 C 89.21875 52.433594 81.964844 72.355469 74.808594 92.375 Z M 74.808594 92.375 "/>
<path style=" stroke:none;fill-rule:nonzero;fill:rgb(21.960784%,57.647059%,60.784314%);fill-opacity:1;" d="M 80.4375 72.449219 C 80.34375 72.832031 80.25 73.117188 80.152344 73.5 C 79.101562 76.644531 75.574219 78.265625 72.421875 77.027344 C 71.660156 76.738281 70.992188 76.261719 70.417969 75.691406 C 69.847656 75.121094 69.464844 74.453125 69.179688 73.691406 C 68.894531 72.925781 68.796875 72.164062 68.796875 71.304688 C 68.796875 70.542969 69.082031 69.6875 69.371094 69.019531 C 69.464844 68.828125 69.5625 68.636719 69.65625 68.351562 C 69.5625 68.445312 69.371094 68.636719 69.273438 68.734375 C 68.035156 69.972656 66.890625 71.117188 65.648438 72.355469 C 64.597656 73.5 63.261719 73.976562 61.640625 73.976562 C 58.207031 73.976562 54.867188 73.976562 51.429688 73.976562 L 50.859375 73.976562 L 50.859375 66.253906 L 58.492188 66.253906 L 53.53125 61.296875 C 58.875 59.484375 62.40625 55.957031 64.21875 50.523438 L 69.082031 55.480469 L 69.082031 47.953125 L 76.910156 47.953125 L 76.910156 48.617188 C 76.910156 51.957031 76.910156 55.292969 76.910156 58.628906 C 76.910156 60.34375 76.335938 61.679688 75.191406 62.824219 C 73.855469 64.0625 72.613281 65.394531 71.277344 66.730469 C 71.46875 66.730469 71.566406 66.636719 71.566406 66.636719 C 75.191406 64.539062 79.675781 66.730469 80.25 70.640625 C 80.25 70.734375 80.34375 70.734375 80.34375 70.828125 L 80.34375 72.449219 Z M 80.4375 72.449219 "/>
<path style=" stroke:none;fill-rule:nonzero;fill:rgb(21.960784%,57.647059%,60.784314%);fill-opacity:1;" d="M 80.4375 21.449219 C 80.34375 21.925781 80.152344 22.308594 80.058594 22.785156 C 78.816406 25.929688 75.09375 27.359375 72.042969 25.835938 C 71.851562 25.738281 71.660156 25.644531 71.375 25.644531 C 72.710938 26.980469 74.046875 28.3125 75.382812 29.554688 C 76.242188 30.410156 76.8125 31.363281 77.003906 32.605469 C 77.003906 32.699219 77.003906 32.890625 77.003906 32.984375 C 77.003906 36.796875 77.003906 40.515625 77.003906 44.328125 L 69.273438 44.328125 L 69.273438 36.796875 L 64.3125 41.753906 C 62.40625 36.320312 58.96875 32.792969 53.53125 30.984375 L 58.492188 26.027344 L 50.859375 26.027344 L 50.859375 18.304688 L 51.527344 18.304688 C 54.867188 18.304688 58.207031 18.304688 61.546875 18.304688 C 63.261719 18.304688 64.597656 18.875 65.746094 20.019531 C 66.984375 21.355469 68.320312 22.59375 69.5625 23.929688 C 69.273438 23.167969 68.894531 22.402344 68.796875 21.546875 C 68.320312 18.398438 70.230469 15.730469 73.378906 14.96875 C 73.472656 14.96875 73.570312 14.871094 73.664062 14.871094 L 75.382812 14.871094 C 75.476562 14.871094 75.574219 14.96875 75.667969 14.96875 C 77.863281 15.445312 79.390625 16.78125 80.152344 18.875 C 80.25 19.257812 80.34375 19.542969 80.4375 19.925781 Z M 80.4375 21.449219 "/>
<path style=" stroke:none;fill-rule:nonzero;fill:rgb(21.960784%,57.647059%,60.784314%);fill-opacity:1;" d="M 24.332031 14.777344 C 24.617188 14.871094 25 14.96875 25.285156 15.0625 C 26.050781 15.347656 26.8125 15.730469 27.480469 16.304688 C 28.054688 16.875 28.625 17.542969 28.914062 18.398438 C 29.199219 19.164062 29.390625 20.019531 29.292969 20.878906 C 29.292969 21.738281 29.007812 22.5 28.625 23.261719 C 28.53125 23.453125 28.433594 23.546875 28.433594 23.832031 C 29.582031 22.691406 30.820312 21.546875 31.871094 20.402344 C 33.300781 18.78125 35.019531 18.113281 37.117188 18.210938 C 40.457031 18.304688 43.796875 18.210938 47.136719 18.210938 L 47.136719 25.929688 L 39.695312 25.929688 L 39.597656 26.027344 L 44.464844 30.886719 C 39.121094 32.699219 35.6875 36.226562 33.777344 41.566406 L 28.914062 36.609375 L 28.914062 44.136719 L 21.085938 44.136719 L 21.085938 43.566406 C 21.085938 40.132812 21.085938 36.796875 21.085938 33.367188 C 21.085938 31.746094 21.660156 30.410156 22.804688 29.265625 C 24.140625 28.027344 25.382812 26.695312 26.71875 25.359375 C 26.621094 25.359375 26.527344 25.453125 26.335938 25.453125 C 24.140625 26.789062 21.945312 26.695312 20.039062 25.167969 C 18.035156 23.738281 17.367188 21.640625 17.84375 19.257812 C 18.417969 16.875 20.039062 15.445312 22.421875 14.871094 C 22.519531 14.871094 22.613281 14.777344 22.710938 14.777344 Z M 24.332031 14.777344 "/>
<path style=" stroke:none;fill-rule:nonzero;fill:rgb(100%,100%,100%);fill-opacity:1;" d="M 80.4375 19.828125 C 80.34375 19.449219 80.25 19.164062 80.152344 18.78125 C 79.390625 16.683594 77.957031 15.347656 75.667969 14.871094 C 75.574219 14.871094 75.476562 14.777344 75.382812 14.777344 L 80.4375 14.777344 Z M 80.4375 19.828125 "/>
<path style=" stroke:none;fill-rule:nonzero;fill:rgb(21.960784%,57.647059%,60.784314%);fill-opacity:1;" d="M 21.085938 47.953125 L 28.816406 47.953125 L 28.816406 55.480469 L 33.777344 50.523438 C 34.636719 53.195312 35.972656 55.386719 37.882812 57.292969 C 39.695312 59.105469 41.890625 60.4375 44.464844 61.296875 L 39.503906 66.253906 L 47.136719 66.253906 L 47.136719 74.070312 L 46.566406 74.070312 C 43.128906 74.070312 39.695312 74.070312 36.355469 74.070312 C 34.828125 74.070312 33.492188 73.5 32.347656 72.449219 C 31.011719 71.117188 29.675781 69.78125 28.339844 68.445312 C 29.199219 69.972656 29.484375 71.59375 29.007812 73.214844 C 28.53125 74.832031 27.480469 76.167969 25.859375 76.835938 C 23.472656 77.980469 20.515625 77.3125 18.894531 75.214844 C 18.035156 74.167969 17.652344 72.925781 17.558594 71.6875 C 17.558594 70.351562 17.9375 69.113281 18.703125 68.066406 C 20.515625 65.683594 23.089844 65.207031 26.621094 66.730469 C 26.429688 66.539062 26.335938 66.445312 26.242188 66.253906 C 25 65.015625 23.855469 63.871094 22.613281 62.632812 C 21.46875 61.582031 20.992188 60.25 20.992188 58.722656 C 20.992188 55.292969 20.992188 51.859375 20.992188 48.429688 Z M 21.085938 47.953125 "/>
<path style=" stroke:none;fill-rule:nonzero;fill:rgb(21.960784%,57.647059%,60.784314%);fill-opacity:1;" d="M 61.257812 46.140625 C 61.257812 52.8125 55.820312 58.34375 49.046875 58.34375 C 42.367188 58.34375 36.832031 52.910156 36.832031 46.234375 C 36.832031 39.5625 42.269531 34.035156 49.046875 34.035156 C 55.820312 33.9375 61.257812 39.371094 61.257812 46.140625 Z M 47.710938 46.617188 C 47.042969 46.042969 46.566406 45.472656 45.992188 44.996094 C 45.230469 44.234375 44.082031 44.328125 43.320312 45.089844 C 42.652344 45.855469 42.652344 46.902344 43.417969 47.664062 C 44.464844 48.617188 45.515625 49.667969 46.566406 50.621094 C 47.421875 51.382812 48.472656 51.382812 49.238281 50.523438 C 50.859375 48.714844 52.480469 46.808594 54.101562 44.996094 C 54.484375 44.519531 54.675781 43.949219 54.484375 43.375 C 54.292969 42.707031 53.914062 42.230469 53.148438 42.042969 C 52.386719 41.851562 51.8125 42.042969 51.242188 42.613281 C 50.09375 43.851562 48.949219 45.28125 47.710938 46.617188 Z M 47.710938 46.617188 "/>
</g>
</svg>
