<?xml version="1.0" encoding="UTF-8"?>
<svg xmlns="http://www.w3.org/2000/svg" xmlns:xlink="http://www.w3.org/1999/xlink" width="100px" height="100px" viewBox="0 0 100 98" version="1.1">
<g id="surface2">
<path style=" stroke:none;fill-rule:nonzero;fill:rgb(100%,100%,100%);fill-opacity:1;" d="M 96.46875 32.414062 C 89.3125 52.433594 82.0625 72.355469 74.808594 92.375 C 74.714844 92.753906 74.332031 92.945312 73.949219 92.945312 C 61.070312 93.230469 48.1875 93.519531 35.304688 93.804688 C 35.113281 93.804688 34.921875 93.707031 34.828125 93.707031 C 24.808594 87.511719 14.695312 81.410156 4.675781 75.214844 C 4.390625 75.023438 4.199219 74.738281 4.199219 74.453125 C 4.675781 51.667969 5.058594 28.980469 5.4375 6.199219 C 5.4375 5.722656 5.820312 5.339844 6.296875 5.339844 L 75.574219 3.625 C 84.445312 15.824219 87.5 20.117188 96.46875 32.414062 Z M 96.46875 32.414062 "/>
<path style=" stroke:none;fill-rule:nonzero;fill:rgb(79.607843%,86.27451%,7.45098%);fill-opacity:1;" d="M 76.910156 1.242188 L 4.007812 3.050781 C 3.53125 3.050781 3.148438 3.433594 3.148438 3.910156 C 2.765625 27.933594 2.289062 51.859375 1.910156 75.785156 C 1.910156 76.074219 2.097656 76.359375 2.386719 76.550781 C 12.976562 83.03125 23.570312 89.515625 34.066406 95.902344 C 34.253906 95.996094 34.351562 95.996094 34.542969 95.996094 C 48.089844 95.710938 61.640625 95.425781 75.285156 95.136719 C 75.667969 95.136719 75.953125 94.949219 76.144531 94.566406 C 83.777344 73.5 91.316406 52.527344 98.949219 31.460938 C 89.503906 18.589844 86.257812 14.109375 76.910156 1.242188 Z M 74.808594 92.375 C 74.714844 92.753906 74.332031 92.945312 73.949219 92.945312 C 61.070312 93.230469 48.1875 93.519531 35.304688 93.804688 C 35.113281 93.804688 34.921875 93.707031 34.828125 93.707031 C 24.808594 87.511719 14.695312 81.410156 4.675781 75.214844 C 4.390625 75.023438 4.199219 74.738281 4.199219 74.453125 C 4.675781 51.667969 5.058594 28.980469 5.4375 6.199219 C 5.4375 5.722656 5.820312 5.339844 6.296875 5.339844 L 75.574219 3.625 C 84.445312 15.921875 87.5 20.210938 96.375 32.507812 C 89.21875 52.433594 81.964844 72.355469 74.808594 92.375 Z M 74.808594 92.375 "/>
<path style=" stroke:none;fill-rule:nonzero;fill:rgb(21.960784%,57.647059%,60.784314%);fill-opacity:1;" d="M 58.683594 54.71875 L 55.34375 56.625 C 55.726562 54.242188 54.960938 52.242188 52.765625 50.90625 C 50.859375 49.761719 48.855469 49.761719 47.042969 51 C 45.039062 52.335938 44.273438 54.339844 44.65625 56.625 L 41.414062 54.625 C 42.84375 53.480469 43.703125 51.859375 43.511719 49.859375 C 43.417969 48.332031 42.75 47.09375 41.601562 46.140625 C 39.410156 44.234375 36.070312 44.425781 34.066406 46.617188 C 32.347656 48.429688 31.679688 52.144531 34.828125 54.71875 L 32.347656 56.054688 C 32.347656 55.578125 32.25 55.101562 32.15625 54.625 C 31.679688 52.144531 29.769531 50.335938 27.195312 50.144531 C 26.8125 50.144531 26.621094 49.953125 26.621094 49.570312 C 26.621094 49.09375 26.527344 48.617188 26.527344 48.046875 C 26.527344 43.757812 26.527344 39.46875 26.527344 35.175781 C 26.527344 32.03125 28.433594 30.21875 31.488281 30.21875 C 37.976562 30.21875 44.371094 30.21875 50.859375 30.21875 C 53.433594 30.21875 55.4375 32.03125 55.628906 34.414062 C 55.820312 36.988281 53.816406 39.277344 51.144531 39.277344 C 46.851562 39.277344 42.558594 39.277344 38.167969 39.277344 C 37.976562 39.277344 37.785156 39.277344 37.59375 39.277344 C 37.117188 39.371094 36.738281 39.5625 36.738281 40.039062 C 36.738281 40.515625 36.925781 40.800781 37.40625 40.992188 C 38.167969 41.277344 39.027344 41.566406 39.789062 41.945312 C 42.175781 43.089844 43.988281 44.902344 44.5625 47.570312 C 44.65625 48.238281 44.75 48.808594 44.75 49.476562 C 44.847656 50.144531 45.132812 50.523438 45.707031 50.523438 C 46.277344 50.523438 46.566406 50.144531 46.566406 49.476562 C 46.566406 46.332031 45.324219 43.660156 42.84375 41.753906 C 42.652344 41.566406 42.367188 41.375 42.175781 41.085938 L 42.75 41.085938 C 45.324219 41.085938 47.902344 40.992188 50.476562 41.085938 C 53.246094 41.183594 55.4375 40.132812 56.871094 37.75 C 59.066406 38.132812 60.972656 37.464844 62.59375 35.941406 C 63.644531 40.707031 69.371094 42.898438 73.378906 39.371094 L 73.378906 50.046875 C 71.753906 50.046875 70.324219 50.621094 69.273438 51.859375 C 68.226562 53.003906 67.75 54.433594 67.84375 56.054688 L 65.363281 54.71875 C 68.605469 52.050781 67.75 48.140625 65.839844 46.332031 C 64.789062 45.378906 63.359375 44.804688 61.925781 44.902344 C 60.496094 44.902344 59.066406 45.566406 58.109375 46.617188 C 56.105469 48.523438 55.726562 52.242188 58.683594 54.71875 Z M 58.683594 54.71875 "/>
<path style=" stroke:none;fill-rule:nonzero;fill:rgb(21.960784%,57.647059%,60.784314%);fill-opacity:1;" d="M 64.3125 29.648438 C 64.3125 27.835938 64.21875 26.027344 64.3125 24.308594 C 64.410156 22.308594 65.457031 20.972656 67.269531 20.304688 C 68.988281 19.640625 70.898438 20.117188 72.136719 21.546875 C 72.804688 22.308594 73.28125 23.167969 73.28125 24.214844 C 73.28125 27.835938 73.378906 31.460938 73.28125 35.175781 C 73.1875 37.371094 71.375 39.179688 69.273438 39.277344 C 66.890625 39.46875 64.980469 38.039062 64.410156 35.84375 C 64.3125 35.273438 64.3125 34.699219 64.3125 34.128906 C 64.3125 32.605469 64.3125 31.171875 64.3125 29.648438 Z M 64.3125 29.648438 "/>
<path style=" stroke:none;fill-rule:nonzero;fill:rgb(21.960784%,57.647059%,60.784314%);fill-opacity:1;" d="M 40.746094 28.410156 L 31.773438 28.410156 C 31.773438 28.21875 31.773438 28.125 31.773438 27.933594 C 31.773438 23.546875 31.773438 19.257812 31.773438 14.871094 C 31.773438 12.011719 33.875 10.105469 36.738281 10.296875 C 38.742188 10.390625 40.457031 12.011719 40.746094 14.015625 C 40.839844 14.394531 40.839844 14.777344 40.839844 15.0625 C 40.839844 19.351562 40.839844 23.546875 40.839844 27.835938 C 40.746094 28.027344 40.746094 28.21875 40.746094 28.410156 Z M 40.746094 28.410156 "/>
<path style=" stroke:none;fill-rule:nonzero;fill:rgb(21.960784%,57.647059%,60.784314%);fill-opacity:1;" d="M 57.441406 36.035156 C 57.730469 32.890625 56.582031 30.507812 53.816406 29.078125 C 53.625 28.886719 53.433594 28.601562 53.433594 28.503906 C 53.433594 26.027344 53.339844 23.546875 53.433594 21.164062 C 53.53125 18.78125 55.4375 16.875 57.824219 16.875 C 60.210938 16.78125 62.214844 18.589844 62.40625 20.972656 C 62.5 22.691406 62.5 24.40625 62.5 26.121094 C 62.5 27.933594 62.5 29.742188 62.5 31.460938 C 62.40625 34.222656 60.402344 36.226562 57.824219 36.128906 C 57.730469 36.035156 57.632812 36.035156 57.441406 36.035156 Z M 57.441406 36.035156 "/>
<path style=" stroke:none;fill-rule:nonzero;fill:rgb(21.960784%,57.647059%,60.784314%);fill-opacity:1;" d="M 50 72.449219 C 48.1875 72.449219 46.375 72.261719 44.65625 71.59375 C 44.5625 71.59375 44.371094 71.496094 44.273438 71.496094 C 42.269531 70.734375 41.792969 69.78125 42.175781 67.78125 C 42.558594 65.871094 43.605469 64.253906 45.132812 63.011719 C 46.660156 61.871094 48.570312 61.296875 50.476562 61.390625 C 54.390625 61.679688 57.539062 64.824219 57.730469 68.734375 C 57.824219 69.78125 57.347656 70.449219 56.488281 70.925781 C 55.34375 71.6875 53.914062 71.972656 52.578125 72.164062 C 51.910156 72.355469 50.953125 72.355469 50 72.449219 Z M 50 72.449219 "/>
<path style=" stroke:none;fill-rule:nonzero;fill:rgb(21.960784%,57.647059%,60.784314%);fill-opacity:1;" d="M 73.1875 72.355469 C 71.277344 72.355469 69.371094 72.164062 67.558594 71.496094 C 67.082031 71.304688 66.699219 71.117188 66.316406 70.828125 C 65.554688 70.351562 65.265625 69.589844 65.363281 68.636719 C 65.839844 64.539062 69.082031 61.488281 72.996094 61.390625 C 77.097656 61.296875 80.4375 64.15625 81.105469 68.257812 C 81.296875 69.6875 81.011719 70.449219 79.675781 71.117188 C 78.148438 71.972656 76.429688 72.164062 74.808594 72.355469 C 74.238281 72.449219 73.664062 72.355469 73.1875 72.355469 Z M 73.1875 72.355469 "/>
<path style=" stroke:none;fill-rule:nonzero;fill:rgb(21.960784%,57.647059%,60.784314%);fill-opacity:1;" d="M 26.8125 72.449219 C 25 72.449219 23.1875 72.261719 21.46875 71.6875 C 20.992188 71.496094 20.515625 71.304688 20.039062 71.019531 C 19.179688 70.542969 18.796875 69.78125 18.894531 68.734375 C 19.179688 64.824219 22.519531 61.582031 26.429688 61.488281 C 30.535156 61.390625 34.066406 64.347656 34.542969 68.351562 C 34.734375 69.972656 34.351562 70.640625 32.917969 71.402344 C 31.582031 71.972656 29.390625 72.449219 26.8125 72.449219 Z M 26.8125 72.449219 "/>
<path style=" stroke:none;fill-rule:nonzero;fill:rgb(21.960784%,57.647059%,60.784314%);fill-opacity:1;" d="M 51.527344 28.410156 L 42.652344 28.410156 C 42.652344 28.3125 42.558594 28.125 42.558594 28.027344 C 42.558594 24.691406 42.558594 21.355469 42.558594 18.019531 C 42.558594 15.445312 44.65625 13.441406 47.234375 13.539062 C 49.617188 13.632812 51.527344 15.445312 51.621094 17.921875 C 51.71875 21.355469 51.621094 24.785156 51.621094 28.21875 C 51.621094 28.3125 51.621094 28.3125 51.527344 28.410156 Z M 51.527344 28.410156 "/>
<path style=" stroke:none;fill-rule:nonzero;fill:rgb(21.960784%,57.647059%,60.784314%);fill-opacity:1;" d="M 45.132812 60.535156 C 44.179688 61.488281 43.128906 62.25 42.367188 63.203125 C 41.601562 64.15625 41.222656 65.394531 40.648438 66.539062 C 40.457031 66.828125 40.363281 67.113281 39.980469 67.113281 C 38.835938 67.113281 37.785156 67.113281 36.640625 67.113281 C 36.449219 67.113281 36.257812 66.921875 36.164062 66.828125 C 35.402344 63.964844 33.585938 61.871094 31.011719 60.4375 C 31.871094 57.960938 35.019531 56.054688 38.074219 56.054688 C 41.222656 56.054688 44.273438 58.054688 45.132812 60.535156 Z M 45.132812 60.535156 "/>
<path style=" stroke:none;fill-rule:nonzero;fill:rgb(21.960784%,57.647059%,60.784314%);fill-opacity:1;" d="M 54.769531 60.726562 C 55.917969 57.867188 58.875 56.054688 61.925781 56.054688 C 64.980469 56.054688 67.84375 57.867188 68.894531 60.4375 C 68.703125 60.535156 68.605469 60.628906 68.417969 60.726562 C 66.125 62.058594 64.503906 64.0625 63.742188 66.636719 C 63.644531 67.015625 63.453125 67.207031 63.074219 67.207031 C 61.925781 67.207031 60.878906 67.207031 59.734375 67.113281 C 59.542969 67.113281 59.253906 66.921875 59.253906 66.730469 C 58.683594 64.0625 57.15625 62.15625 54.769531 60.726562 Z M 54.769531 60.726562 "/>
<path style=" stroke:none;fill-rule:nonzero;fill:rgb(21.960784%,57.647059%,60.784314%);fill-opacity:1;" d="M 50 51.957031 C 50.761719 51.957031 51.429688 52.144531 52.003906 52.527344 C 52.578125 52.910156 53.054688 53.480469 53.339844 54.148438 C 53.625 54.816406 53.722656 55.578125 53.53125 56.246094 C 53.433594 56.914062 53.054688 57.578125 52.578125 58.054688 C 52.097656 58.53125 51.429688 58.914062 50.761719 59.007812 C 50.09375 59.105469 49.332031 59.105469 48.664062 58.820312 C 47.996094 58.53125 47.421875 58.054688 47.042969 57.484375 C 46.660156 56.914062 46.46875 56.148438 46.375 55.480469 C 46.375 55.003906 46.46875 54.527344 46.660156 54.050781 C 46.851562 53.574219 47.136719 53.195312 47.421875 52.910156 C 47.804688 52.527344 48.1875 52.335938 48.570312 52.144531 C 49.046875 52.050781 49.523438 51.957031 50 51.957031 Z M 50 51.957031 "/>
<path style=" stroke:none;fill-rule:nonzero;fill:rgb(21.960784%,57.647059%,60.784314%);fill-opacity:1;" d="M 26.8125 51.957031 C 27.578125 51.957031 28.246094 52.144531 28.816406 52.527344 C 29.390625 52.910156 29.867188 53.480469 30.152344 54.148438 C 30.4375 54.816406 30.535156 55.578125 30.34375 56.246094 C 30.25 56.914062 29.867188 57.578125 29.390625 58.152344 C 28.914062 58.628906 28.246094 59.007812 27.578125 59.199219 C 26.910156 59.390625 26.144531 59.296875 25.476562 59.007812 C 24.808594 58.628906 24.238281 58.152344 23.855469 57.578125 C 23.472656 57.007812 23.1875 56.246094 23.1875 55.578125 C 23.1875 53.574219 24.808594 51.957031 26.8125 51.957031 Z M 26.8125 51.957031 "/>
<path style=" stroke:none;fill-rule:nonzero;fill:rgb(21.960784%,57.647059%,60.784314%);fill-opacity:1;" d="M 61.925781 53.957031 C 59.921875 53.957031 58.300781 52.335938 58.300781 50.335938 C 58.300781 49.382812 58.683594 48.429688 59.351562 47.761719 C 60.019531 47.09375 60.972656 46.710938 61.925781 46.710938 C 63.929688 46.710938 65.554688 48.332031 65.554688 50.335938 C 65.648438 52.335938 64.027344 53.957031 61.925781 53.957031 Z M 61.925781 53.957031 "/>
<path style=" stroke:none;fill-rule:nonzero;fill:rgb(21.960784%,57.647059%,60.784314%);fill-opacity:1;" d="M 76.8125 55.578125 C 76.8125 56.339844 76.621094 57.007812 76.144531 57.578125 C 75.667969 58.152344 75.191406 58.628906 74.523438 58.914062 C 73.855469 59.199219 73.089844 59.296875 72.421875 59.105469 C 71.753906 59.007812 71.085938 58.628906 70.609375 58.152344 C 70.132812 57.675781 69.75 57.007812 69.65625 56.246094 C 69.5625 55.578125 69.5625 54.816406 69.847656 54.148438 C 70.132812 53.480469 70.609375 52.910156 71.183594 52.527344 C 71.753906 52.144531 72.519531 51.957031 73.1875 51.957031 C 75.285156 51.957031 76.8125 53.574219 76.8125 55.578125 Z M 76.8125 55.578125 "/>
<path style=" stroke:none;fill-rule:nonzero;fill:rgb(21.960784%,57.647059%,60.784314%);fill-opacity:1;" d="M 38.074219 53.957031 C 37.59375 53.957031 37.117188 53.863281 36.640625 53.671875 C 36.164062 53.480469 35.78125 53.195312 35.496094 52.910156 C 35.113281 52.527344 34.921875 52.144531 34.734375 51.765625 C 34.542969 51.289062 34.445312 50.8125 34.445312 50.335938 C 34.445312 49.859375 34.542969 49.382812 34.734375 48.90625 C 34.921875 48.429688 35.210938 48.046875 35.496094 47.761719 C 35.878906 47.378906 36.257812 47.1875 36.640625 47 C 37.117188 46.808594 37.59375 46.710938 38.074219 46.710938 C 40.078125 46.710938 41.699219 48.332031 41.699219 50.335938 C 41.699219 52.335938 40.078125 53.957031 38.074219 53.957031 Z M 38.074219 53.957031 "/>
</g>
</svg>
