<?xml version="1.0" encoding="UTF-8"?>
<svg id="Layer_2" data-name="Layer 2" xmlns="http://www.w3.org/2000/svg" viewBox="0 0 500 500">
  <defs>
    <style>
      .cls-1 {
        fill: #cbdc13;
      }
    </style>
  </defs>
  <path class="cls-1" d="m246.26,9.99c9.38,4.19,12.15,11.64,11.9,21.53-.47,18.42-.12,36.87-.14,55.3-.01,12.85-5.33,18.55-18.13,19.56-65.49,5.16-117.74,51.15-131.16,115.44-15.79,75.67,34.09,152.48,109.77,168.76,8.06,1.73,16.35,2.39,24.53,3.51,9.15,1.24,14.81,7.02,14.9,16.26.2,21.09.22,42.18,0,63.27-.11,10.34-7.19,16.72-17.58,16.38-4.68-.15-9.39-.42-13.99-1.19-9.77-1.62-16.82-9.16-18.49-19.27-1.14-6.93-2.36-13.85-3.34-20.8-.4-2.8-1.38-4.16-4.4-4.92-18.42-4.61-35.82-11.82-52.07-21.69-2.2-1.34-3.69-1.4-5.79.19-5.85,4.43-11.84,8.67-17.86,12.86-9.56,6.66-20.35,6.39-28.77-1.51-10.12-9.5-20.02-19.27-29.42-29.48-7.75-8.42-7.83-18.96-1.27-28.4,4.19-6.03,8.44-12.01,12.85-17.88,1.56-2.07,1.59-3.62.25-5.83-9.97-16.37-17.16-33.94-21.84-52.51-.64-2.52-1.65-3.59-4.24-3.95-6.8-.95-13.54-2.27-20.33-3.33-12.57-1.97-19.85-9.91-20.78-22.73-.13-1.84-.6-3.66-.92-5.48,0-9.38,0-18.75,0-28.13.31-1.82.78-3.63.92-5.46.95-13.04,8.2-20.8,21.2-22.76,6.47-.98,12.9-2.26,19.39-3.17,2.84-.4,4.15-1.5,4.88-4.44,4.58-18.42,11.74-35.82,21.65-52.03,1.52-2.49,1.15-4.09-.43-6.2-4.29-5.75-8.45-11.6-12.56-17.48-6.6-9.44-6.65-19.99,1.07-28.39,9.58-10.44,19.66-20.47,30.08-30.07,8.14-7.51,18.86-7.56,28.03-1.2,6.15,4.27,12.11,8.83,18.36,12.94,1.28.84,3.9,1.01,5.18.26,16.64-9.8,34.27-17.1,52.93-22.04,1.45-.38,3.23-2.32,3.53-3.8,1.48-7.17,2.51-14.44,3.7-21.67,1.86-11.28,9.87-18.64,21.23-19.59,1.35-.11,2.67-.57,4.01-.87,4.38,0,8.75,0,13.13,0Zm-4.61,15.94c-3.99.33-7.39.7-10.8.87-4.25.21-6.52,2.32-7.17,6.53-1.45,9.25-3.19,18.46-4.5,27.73-.73,5.2-3.28,8.02-8.44,9.12-21.58,4.63-41.65,12.97-60.14,25.03-4.24,2.76-8,2.58-12.04-.42-7.65-5.67-15.47-11.12-23.2-16.69-3.23-2.33-6.43-2.49-9.32.35-9.01,8.86-17.94,17.8-26.89,26.72-3.46,3.45-3.42,6.95-.53,10.85,5.48,7.4,10.69,15.01,16.18,22.41,2.98,4.01,3.3,7.79.52,12.05-12.15,18.63-20.49,38.88-25.17,60.6-1.08,5.02-3.92,7.39-8.87,8.12-9.26,1.36-18.47,3.1-27.72,4.5-4.27.65-6.54,3.01-6.58,7.15-.12,12.79-.13,25.58,0,38.36.04,4.1,2.25,6.55,6.53,7.21,9.1,1.4,18.17,3.01,27.25,4.51,6.56,1.09,8.04,2.36,9.55,9.02,4.8,21.21,12.88,41.05,24.78,59.27,2.98,4.57,2.75,8.51-.53,12.85-5.46,7.22-10.52,14.75-15.9,22.03-2.87,3.88-2.98,7.36.51,10.84,8.73,8.7,17.47,17.39,26.16,26.13,3.52,3.54,6.99,3.3,10.83.47,7.42-5.46,15.02-10.68,22.4-16.2,4.04-3.02,7.79-3.21,12.03-.44,18.63,12.14,38.85,20.51,60.6,25.15,4.75,1.01,7.21,3.75,7.93,8.54,1.41,9.41,2.84,18.84,4.75,28.16.46,2.23,2.44,5.27,4.35,5.84,4.18,1.25,8.76,1.15,13,1.58.34-1,.52-1.29.52-1.58.09-19.84.11-39.68.29-59.52.03-3.3-1.98-3.19-4.23-3.52-9.09-1.36-18.34-2.14-27.21-4.41-81.38-20.78-132.38-99.7-118.25-182.58,11.3-66.29,64.06-119.1,130.11-130.15,6.28-1.05,12.62-1.73,19.21-2.61V25.92Z"/>
  <path class="cls-1" d="m258.31,145.98v15.98c1.68,0,3.34,0,5,0,26.41,0,52.82-.01,79.23.03,2.01,0,4.12.02,6,.63,3.89,1.26,5.85,4.27,5.35,8.3-.49,3.96-2.93,6.48-7.07,6.94-1.39.16-2.81.08-4.22.08-26.25,0-52.51,0-78.76,0-1.69,0-3.38,0-5.44,0v24.15h4.64c40.01,0,80.01,0,120.02,0,8.34,0,10.99-2.61,11.01-10.89.04-11.56-.06-23.13.06-34.69.03-2.62-.68-4.09-3.17-5.42-10.57-5.63-15.26-17.16-11.82-28.21,3.34-10.73,13.96-18,24.69-16.9,12.17,1.24,21.29,10.11,22.07,22.29.64,9.87-3.56,17.67-12.31,22.5-2.74,1.51-3.62,3.14-3.57,6.16.17,11.72.12,23.44.06,35.16-.09,16.02-10.11,25.97-26.14,25.98-39.85.02-79.7,0-119.55,0-1.86,0-3.71,0-5.97,0v23.7c1.8.08,3.47.22,5.14.22,58.29.01,116.58,0,174.87.06,3.22,0,5.23-.52,6.97-3.8,5.07-9.58,16.4-14.15,26.81-11.45,10.33,2.68,17.8,12.39,17.82,23.16.02,10.8-7.32,20.38-17.75,23.19-10.4,2.8-21.68-1.73-26.86-11.31-1.59-2.94-3.27-3.86-6.46-3.85-58.6.08-117.2.06-175.8.07-1.52,0-3.04.16-4.83.26v23.65c1.92,0,3.74,0,5.56,0,39.22,0,78.45,0,117.67,0,19.48,0,28.54,9.14,28.55,28.78,0,10.94.06,21.88-.04,32.82-.02,2.57.54,4.11,3.1,5.48,10.26,5.48,14.9,16.4,12.05,27.34-2.68,10.28-12.48,17.82-23.19,17.83-10.68.01-20.38-7.45-23.18-17.84-2.91-10.78,1.88-21.95,12.08-27.36,2.46-1.31,3.26-2.73,3.23-5.39-.13-11.88,0-23.75-.08-35.63-.05-7.08-2.97-10.01-10.01-10.02-40.63-.04-81.26-.02-121.89,0-1.21,0-2.42.19-3.87.31v23.83h5.48c26.1,0,52.19,0,78.29,0,1.56,0,3.14-.07,4.68.1,4.01.42,6.98,3.49,7.24,7.35.26,3.77-2.38,7.38-6.27,8.23-1.65.36-3.41.29-5.13.29-26.25.02-52.51.01-78.76.01-1.69,0-3.39,0-5.44,0v15.98c1.82,0,3.49,0,5.17,0,13.91,0,27.82-.07,41.72.02,14.41.1,24.46,10.03,24.61,24.46.16,15,.09,30,0,45.01-.02,2.62.64,4.13,3.15,5.46,10.28,5.45,15.07,16.53,12.15,27.28-2.87,10.58-12.23,17.81-23.09,17.84-10.81.03-20.56-7.37-23.25-17.66-2.88-10.99,1.75-21.97,11.95-27.37,2.51-1.33,3.2-2.78,3.18-5.41-.1-14.69-.02-29.38-.07-44.07-.02-6.62-2.85-9.55-9.32-9.57-15.16-.06-30.32-.07-45.47.06-1.48.01-3.43.68-4.33,1.75-3.75,4.48-8.4,6.2-14.11,5.78-28.52-2.14-53.97-12.19-75.03-31.48-38.23-35.01-52.32-78.57-39.14-128.67,13.18-50.11,47.08-80.67,97.42-92.78,5.73-1.38,11.73-1.71,17.62-2.31,5.18-.53,9.36,1.51,12.89,5.34,1.08,1.17,3.04,2.13,4.6,2.15,15.31.16,30.63.14,45.94.07,5.96-.03,8.88-2.97,8.91-9,.08-15-.04-30,.09-45.01.02-2.61-.96-3.77-3.15-4.95-10.2-5.5-14.86-16.35-12.01-27.36,2.66-10.27,12.44-17.74,23.2-17.73,11,.01,20.62,7.55,23.28,18.23,2.65,10.65-2.15,21.5-12.23,26.87-2.46,1.31-3.23,2.77-3.21,5.43.11,14.53.09,29.07.04,43.6-.06,16.27-9.74,25.89-25.98,25.91-13.44.02-26.88,0-40.32,0-1.68,0-3.37,0-5.32,0Zm-16.55-7.83c-40.04,4.53-70.79,23.06-89.69,58.11-21.49,39.87-19.27,79.84,6.07,117.41,19.71,29.23,48.21,44.59,83.62,48.14v-223.66Zm80.17-80.26c4.54.04,7.97-3.38,7.95-7.93-.02-4.45-3.66-8.07-8.03-7.97-4.14.1-7.73,3.67-7.85,7.8-.12,4.34,3.51,8.05,7.92,8.09Zm7.94,391.96c-.11-4.54-3.64-7.84-8.21-7.67-4.2.16-7.67,3.73-7.66,7.89,0,4.31,3.81,8.06,8.12,8,4.41-.06,7.86-3.72,7.75-8.22Zm144.16-199.94c-.08-4.41-3.76-7.88-8.23-7.75-4.49.13-7.85,3.75-7.66,8.25.18,4.24,3.67,7.58,7.93,7.57,4.4-.01,8.04-3.69,7.97-8.07Zm-64.01-120.02c-.08-4.38-3.79-7.86-8.23-7.74-4.51.13-7.79,3.69-7.61,8.25.17,4.28,3.61,7.56,7.88,7.54,4.4-.02,8.04-3.7,7.96-8.05Zm0,240.13c-.02-4.38-3.7-7.92-8.14-7.84-4.51.08-7.84,3.61-7.7,8.16.13,4.31,3.49,7.6,7.79,7.63,4.42.03,8.08-3.58,8.05-7.95Z"/>
</svg>