<?xml version="1.0" encoding="UTF-8"?>
<svg xmlns="http://www.w3.org/2000/svg" xmlns:xlink="http://www.w3.org/1999/xlink" width="100px" height="100px" viewBox="0 0 100 98" version="1.1">
<g id="surface2">
<path style=" stroke:none;fill-rule:nonzero;fill:rgb(100%,100%,100%);fill-opacity:1;" d="M 96.46875 32.414062 C 89.3125 52.433594 82.0625 72.355469 74.808594 92.375 C 74.714844 92.753906 74.332031 92.945312 73.949219 92.945312 C 61.070312 93.230469 48.1875 93.519531 35.304688 93.804688 C 35.113281 93.804688 34.921875 93.707031 34.828125 93.707031 C 24.808594 87.511719 14.695312 81.410156 4.675781 75.214844 C 4.390625 75.023438 4.199219 74.738281 4.199219 74.453125 C 4.675781 51.667969 5.058594 28.980469 5.4375 6.199219 C 5.4375 5.722656 5.820312 5.339844 6.296875 5.339844 L 75.574219 3.625 C 84.445312 15.824219 87.5 20.117188 96.46875 32.414062 Z M 96.46875 32.414062 "/>
<path style=" stroke:none;fill-rule:nonzero;fill:rgb(21.960784%,57.647059%,60.784314%);fill-opacity:1;" d="M 13.453125 34.320312 C 15.457031 34.320312 17.460938 34.222656 19.464844 34.320312 C 21.183594 34.414062 22.519531 35.273438 23.757812 36.417969 L 25.191406 33.558594 C 24.714844 33.175781 24.238281 32.699219 23.757812 32.222656 C 20.898438 29.363281 20.898438 25.167969 23.757812 22.308594 C 24.90625 21.164062 26.144531 19.925781 27.386719 18.6875 C 28.816406 20.210938 30.34375 21.546875 31.679688 23.167969 C 33.777344 25.835938 33.585938 29.554688 31.203125 32.03125 C 28.433594 34.890625 26.71875 38.324219 26.144531 42.328125 C 25 50.523438 27.957031 57.101562 34.636719 61.871094 C 35.304688 62.347656 35.589844 62.824219 35.589844 63.585938 C 35.496094 65.207031 35.589844 66.730469 35.496094 68.351562 C 35.210938 71.972656 32.730469 74.546875 29.007812 74.738281 C 26.910156 74.832031 24.90625 74.738281 22.710938 74.738281 C 22.710938 74.546875 22.710938 74.355469 22.710938 74.070312 C 22.710938 72.640625 22.710938 71.117188 22.710938 69.6875 C 22.710938 65.871094 25.191406 63.109375 29.007812 62.632812 C 29.101562 62.632812 29.199219 62.632812 29.292969 62.535156 L 25.761719 58.4375 C 25.761719 58.53125 25.667969 58.53125 25.667969 58.628906 C 24.332031 61.390625 22.136719 62.726562 19.179688 62.824219 C 17.460938 62.824219 15.746094 62.824219 13.929688 62.824219 C 13.742188 62.824219 13.550781 62.824219 13.359375 62.917969 L 13.359375 56.722656 C 13.359375 56.625 13.453125 56.625 13.453125 56.53125 C 14.503906 52.527344 16.792969 50.714844 20.992188 50.714844 L 22.519531 50.714844 L 21.945312 47.1875 C 21.277344 47.1875 20.609375 47.1875 19.941406 47.1875 C 18.511719 47.09375 17.175781 46.617188 16.03125 45.757812 C 14.886719 44.902344 14.027344 43.660156 13.644531 42.328125 C 13.550781 41.945312 13.453125 41.660156 13.359375 41.277344 Z M 13.453125 34.320312 "/>
<path style=" stroke:none;fill-rule:nonzero;fill:rgb(21.960784%,57.647059%,60.784314%);fill-opacity:1;" d="M 45.609375 29.933594 C 54.007812 29.933594 60.878906 36.796875 60.878906 45.1875 C 60.878906 53.574219 54.007812 60.4375 45.609375 60.4375 C 37.214844 60.4375 30.34375 53.574219 30.34375 45.1875 C 30.34375 36.796875 37.214844 29.933594 45.609375 29.933594 Z M 43.703125 51.765625 L 53.816406 41.660156 L 51.144531 38.992188 L 43.605469 46.523438 C 42.558594 45.472656 41.601562 44.425781 40.554688 43.472656 L 37.882812 46.042969 C 39.886719 47.953125 41.792969 49.859375 43.703125 51.765625 Z M 43.703125 51.765625 "/>
<path style=" stroke:none;fill-rule:nonzero;fill:rgb(21.960784%,57.647059%,60.784314%);fill-opacity:1;" d="M 63.835938 18.78125 C 65.265625 20.117188 66.601562 21.355469 67.84375 22.785156 C 70.132812 25.261719 70.132812 29.265625 67.84375 31.839844 C 67.269531 32.507812 66.601562 33.082031 65.933594 33.652344 L 67.269531 36.417969 C 67.9375 35.941406 68.605469 35.367188 69.371094 35.082031 C 70.230469 34.699219 71.183594 34.414062 72.136719 34.320312 C 73.949219 34.222656 75.761719 34.320312 77.671875 34.320312 C 77.671875 36.035156 77.671875 37.75 77.671875 39.46875 C 77.671875 40.324219 77.671875 41.277344 77.386719 42.042969 C 76.71875 44.902344 74.046875 47 71.085938 47.09375 C 70.417969 47.09375 69.75 47.09375 68.988281 47.09375 C 68.796875 48.238281 68.605469 49.382812 68.417969 50.621094 C 69.082031 50.621094 69.75 50.621094 70.324219 50.621094 C 74.617188 50.621094 77.578125 53.574219 77.578125 57.867188 C 77.578125 59.484375 77.578125 61.011719 77.578125 62.726562 C 77.195312 62.726562 76.910156 62.726562 76.527344 62.726562 C 74.808594 62.726562 72.996094 62.726562 71.277344 62.726562 C 68.511719 62.632812 66.507812 61.203125 65.363281 58.722656 C 65.265625 58.628906 65.265625 58.53125 65.171875 58.4375 L 61.640625 62.632812 C 61.738281 62.632812 61.832031 62.726562 62.023438 62.726562 C 65.554688 63.109375 68.128906 65.777344 68.226562 69.398438 C 68.320312 71.210938 68.226562 72.925781 68.226562 74.738281 C 68.128906 74.738281 68.128906 74.832031 68.035156 74.832031 C 65.839844 74.832031 63.644531 74.929688 61.449219 74.738281 C 58.109375 74.453125 55.535156 71.59375 55.4375 68.351562 C 55.4375 66.539062 55.4375 64.730469 55.4375 62.917969 C 55.4375 62.535156 55.628906 62.347656 55.917969 62.15625 C 60.6875 59.007812 63.835938 54.71875 64.789062 49 C 65.933594 42.613281 64.3125 36.894531 60.019531 32.128906 C 57.441406 29.265625 57.347656 25.261719 60.019531 22.5 C 61.449219 21.261719 62.691406 20.019531 63.835938 18.78125 Z M 63.835938 18.78125 "/>
<path style=" stroke:none;fill-rule:nonzero;fill:rgb(79.607843%,86.27451%,7.45098%);fill-opacity:1;" d="M 76.910156 1.242188 L 4.007812 3.050781 C 3.53125 3.050781 3.148438 3.433594 3.148438 3.910156 C 2.765625 27.933594 2.289062 51.859375 1.910156 75.785156 C 1.910156 76.074219 2.097656 76.359375 2.386719 76.550781 C 12.976562 83.03125 23.570312 89.515625 34.066406 95.902344 C 34.253906 95.996094 34.351562 95.996094 34.542969 95.996094 C 48.089844 95.710938 61.640625 95.425781 75.285156 95.136719 C 75.667969 95.136719 75.953125 94.949219 76.144531 94.566406 C 83.777344 73.5 91.316406 52.527344 98.949219 31.460938 C 89.503906 18.589844 86.257812 14.109375 76.910156 1.242188 Z M 74.808594 92.375 C 74.714844 92.753906 74.332031 92.945312 73.949219 92.945312 C 61.070312 93.230469 48.1875 93.519531 35.304688 93.804688 C 35.113281 93.804688 34.921875 93.707031 34.828125 93.707031 C 24.808594 87.511719 14.695312 81.410156 4.675781 75.214844 C 4.390625 75.023438 4.199219 74.738281 4.199219 74.453125 C 4.675781 51.667969 5.058594 28.980469 5.4375 6.199219 C 5.4375 5.722656 5.820312 5.339844 6.296875 5.339844 L 75.574219 3.625 C 84.445312 15.921875 87.5 20.210938 96.375 32.507812 C 89.21875 52.433594 81.964844 72.355469 74.808594 92.375 Z M 74.808594 92.375 "/>
</g>
</svg>
