<?xml version="1.0" encoding="UTF-8"?>
<svg id="Layer_2" data-name="Layer 2" xmlns="http://www.w3.org/2000/svg" viewBox="0 0 500 500">
  <defs>
    <style>
      .cls-1 {
        fill: #cbdc13;
      }
    </style>
  </defs>
  <path class="cls-1" d="m222.43,14.55c9.21,1.47,18.51,2.49,27.6,4.47,73.94,16.1,133.39,77.38,147.11,151.75.84,4.58.61,9.88-.88,14.25-2.55,7.47-10.76,11.55-18.53,10.61-8.38-1.01-14.51-7.05-16.24-16.38-2.7-14.55-6.92-28.63-13.96-41.63-31.45-58.1-80.46-87.82-146.42-85.81-76.33,2.32-135.93,57.22-147.16,132.65-10.82,72.76,25.63,138.17,93.26,167.32,1.69.73,3.39,1.42,5.06,2.19,9.45,4.36,13.7,14.47,9.99,23.7-3.8,9.44-14.1,13.95-23.97,10.25-25.2-9.44-47.29-23.8-66.22-42.87-31.71-31.94-51.32-70.14-56.29-114.96C6,141.96,52.45,67.02,128.61,32.27c20.65-9.42,42.33-15.16,65-16.95,1.03-.08,2.04-.51,3.05-.77,8.59,0,17.17,0,25.76,0Z"/>
  <path class="cls-1" d="m485.53,333.7c-2.14,3.45-3.67,7.58-6.56,10.2-5.7,5.17-12.69,5.81-19.74,2.64-7.03-3.16-10.27-9.06-10.43-16.51-.22-10.26-.06-20.53-.07-30.8,0-1.46,0-2.92,0-5.3-1.91,1.79-3.12,2.87-4.26,4.01-17.46,17.44-34.97,34.81-52.31,52.37-4.94,5.01-10.5,7.4-17.58,7.36-28.51-.16-57.01-.02-85.52-.14-3.31-.01-5.64.88-8.02,3.26-39.05,39.19-78.21,78.26-117.29,117.42-5.45,5.46-11.51,8.62-19.37,6.58-13.3-3.44-18.32-18.98-9.59-29.58,1.07-1.3,2.3-2.46,3.49-3.65,40.96-40.96,81.98-81.87,122.83-122.93,5.46-5.49,11.44-7.98,19.2-7.91,28.2.25,56.4.04,84.6.18,3.37.02,5.66-1.02,7.98-3.37,15.51-15.69,31.17-31.25,46.77-46.86,1.07-1.07,2.09-2.18,3.63-3.8-1.88-.14-3.15-.31-4.43-.31-11.03-.02-22.07.04-33.1-.03-11.83-.08-19.77-7.53-19.76-18.41.01-10.88,7.95-18.33,19.79-18.35,25.59-.05,51.19.27,76.78-.15,11.42-.19,19.23,3.82,22.94,14.85v89.22Z"/>
  <path class="cls-1" d="m485.53,470.74c-2.42,6.56-5.98,11.96-13.32,13.89-11.81,3.1-23.08-4.47-23.31-16.65-.41-21.91-.29-43.83-.03-65.75.1-8.38,6.76-15.23,15.11-16.79,7.92-1.47,16.18,2.82,19.74,10.28.65,1.37,1.21,2.79,1.81,4.19v70.82Z"/>
  <path class="cls-1" d="m176,240.82c6.41.41,11.87,4.05,15.48,10.94,4.45,8.5,12.65,12.59,20.82,10.82,9.33-2.01,15.39-10.08,14.62-19.45-.8-9.68-7.82-16.54-17.89-16.98-11.25-.49-21.91-2.88-31.23-9.39-17.28-12.07-25.12-29.11-23.87-49.81,1.3-21.57,12.48-37.06,32.15-46.05,3.43-1.56,4.54-3.3,4.22-6.79-.27-2.88-.18-5.83.03-8.73.75-10.01,8.3-17.1,18.13-17.18,9.84-.08,17.6,6.88,18.43,16.85.37,4.41-1.26,9.73.7,13.07,1.91,3.26,7.36,4.33,11.05,6.69,8.91,5.68,15.29,13.61,19.57,23.2,4.34,9.71.72,20.2-8.37,24.66-9.32,4.58-19.73.86-24.81-8.87-4.39-8.41-10.92-12.23-18.74-10.97-10.02,1.62-16.56,9.49-15.98,19.23.58,9.8,7.73,16.75,18.14,17.19,11.26.48,21.91,2.93,31.18,9.51,17.16,12.18,24.95,29.24,23.68,49.93-1.32,21.57-12.5,37.07-32.15,46.06-3.48,1.59-4.34,3.38-4.24,6.83.12,3.79.11,7.74-.8,11.38-2.18,8.72-10.71,14.28-19.5,13.28-8.83-.99-16.74-8.34-16.09-17.15.67-9.17-2.22-13.94-10.63-17.94-10.45-4.96-17.67-14.08-22.19-24.88-5.14-12.29,3.8-25.52,18.28-25.45Z"/>
  <path class="cls-1" d="m338.33,435.15c0,10.56.17,21.13-.04,31.68-.29,14.16-14.1,22.73-26.61,16.63-6.54-3.19-9.94-8.77-10.01-15.83-.22-21.58-.24-43.17-.03-64.75.1-9.89,8.35-17.59,18.14-17.67,9.99-.08,18.28,7.69,18.5,17.79.23,10.71.05,21.43.06,32.14Z"/>
  <path class="cls-1" d="m411.93,435.31c0,10.1.05,20.2-.01,30.31-.07,11.78-7.54,19.75-18.39,19.75-10.85,0-18.34-7.96-18.38-19.75-.06-20.36-.06-40.72,0-61.07.03-11.17,7.87-19.34,18.38-19.34,10.52,0,18.32,8.14,18.39,19.33.06,10.25.01,20.51.01,30.77Z"/>
  <path class="cls-1" d="m227.99,463.23c-.05-13.01,6.4-21.23,17.11-21.89,9.3-.57,17.66,5.57,19.17,14.86.75,4.6.71,9.52-.02,14.13-1.52,9.51-9.62,15.59-18.96,15.01-9.65-.6-16.66-7.69-17.28-17.53-.1-1.52-.01-3.06-.01-4.58Z"/>
</svg>