<?xml version="1.0" encoding="UTF-8"?>
<svg id="Layer_2" data-name="Layer 2" xmlns="http://www.w3.org/2000/svg" viewBox="0 0 500 500">
  <defs>
    <style>
      .cls-1 {
        fill: #cbdc13;
      }
    </style>
  </defs>
  <path class="cls-1" d="m485.16,193.91c-2.76,7.39-5.12,14.98-8.45,22.1-1.89,4.04-7.19,7.12-7.65,11.03-.46,3.88,3.5,8.14,5.02,12.42,11.03,31-7.26,64.09-39.65,71.77-2.61.62-4.22,1.08-4.41,4.46-1.61,28.04-23.31,49.79-51.35,51.8-.91.06-1.81.16-3.13.27-.58,14.79-5.61,27.79-16.08,38.36-10.5,10.59-23.45,15.77-38.63,16.43-1.23,15.65-7.88,28.02-22.26,34.99-14.16,6.87-27.89,5.01-40.85-3.67-.41.38-.81.64-1.05,1-5.29,8.16-13.08,9.14-19.92,2.26-21.15-21.29-42.23-42.64-63.32-63.98-39.18-39.63-78.36-79.25-117.51-118.91-28.22-28.59-41.88-63.05-41.04-103.18,1.39-66.3,53.31-123.95,118.56-131.58,41.29-4.82,77.38,6.95,108.27,34.73.57.51,1.12,1.05,1.71,1.53.22.18.53.24,1.13.49.58-1.35,1.18-2.7,1.75-4.06,12.86-30.89,49.92-43.26,78.67-26.09,2.65,1.58,4.41,1.52,6.96.04,22.26-12.87,47.89-9.66,66.41,7.99,1.26,1.2,3.82,2.04,5.47,1.67,24.94-5.45,48.63,2.76,62.42,22.85,14.72,21.44,14.72,43.67,1.6,66.01-.23.39-.4.82-.18.36,4.67,7.51,9.43,14.38,13.3,21.7,2.16,4.08,2.86,8.92,4.22,13.42v13.78Zm-141.16,123.98c.22.13,1.51.87,2.8,1.59,11.21,6.29,19.65,15.25,24.17,27.25,1.85,4.93,4.47,5.87,8.87,4.94,1.2-.25,2.41-.42,3.61-.65,18.12-3.57,32.46-21.59,30.67-38.69-.5-.2-1.03-.51-1.61-.63-20.59-4.22-34.37-16.33-41.98-35.82-.6-1.54-2.75-2.73-4.43-3.56-6.26-3.07-12.96-5.37-18.84-9.02-5.14-3.19-4.47-10.13.51-12.97,3.56-2.03,6.72-.96,9.78,1.29,7,5.15,14.85,6.99,23.43,5.73,7.93-1.17,14.24-5.14,19.52-11.07,3.34-3.75,8.12-4.08,11.41-1.16,3.36,2.98,3.6,7.57.25,11.44-2.19,2.53-4.49,5.2-7.28,6.93-5.75,3.57-11.87,6.56-17.94,9.84,3.45,11.52,17.01,21.98,30.84,23.4,16.37,1.69,31.78-6.48,39.33-20.85,6.77-12.88,5.73-29.42-2.29-39.1-5.07,1.51-9.97,3.21-14.99,4.39-4.49,1.05-8.34-1.67-9.32-6-.9-4,1.45-7.73,5.76-9.11,1.02-.32,2.07-.55,3.1-.82,15.08-3.99,24.94-13.57,28.79-28.54,3.83-14.88-.43-27.88-11.63-38.39-10.49-9.84-28.61-12.99-38.89-7.6,1.62,6.38,3.57,12.48,4.64,18.73.94,5.52-2.38,9.51-7.13,9.81-4.76.31-7.71-2.6-8.36-8.25-1.6-14.03-9.41-21.7-23.44-23.02-5.09-.48-8.09-3.68-7.81-8.32.26-4.39,3.59-7.85,8.36-7.14,6.1.92,12.01,3.12,18.05,4.56,1.84.44,3.91.53,5.76.17,7.74-1.51,15.41-4.39,23.16-4.58,7.57-.18,15.21,2.3,23.28,3.69,9.99-11.9,10.02-33.79-.52-48.57-10.03-14.06-30.33-21.9-43.54-16.68.45,1.26,1.09,2.49,1.32,3.8,1.09,6.14,2.41,12.27,2.95,18.47.36,4.13-3.13,7.29-7.09,7.59-3.83.29-7.4-2.51-8.22-6.56-.24-1.19-.19-2.44-.26-3.66-.97-18.48-16.02-34.55-34.16-36.47-19.75-2.09-37.75,9.96-42.65,28.59-.33,1.26-.34,2.62-.38,2.96,4.84,3.18,9.28,5.59,13.11,8.74,3.44,2.83,3.33,7.52.54,10.68-2.59,2.94-7.24,3.75-10.38,1.1-8.22-6.95-16.07-6.96-24.32-.04-3.33,2.8-8.04,1.87-10.66-1.38-2.43-3.01-2.28-7.51.75-10.4,2.08-1.99,4.39-4.33,7-5.03,6.4-1.71,8.17-5.99,9.74-11.86,1.73-6.46,5.42-12.4,8.28-18.61-8.15-5.22-19.84-6.56-30.22-3.33-17.32,5.37-27.62,20.17-27.63,39.92-.02,107.95-.01,215.89,0,323.84,0,1.68.02,3.37.16,5.05,1,12.35,11.27,21.53,23.85,21.35,12.34-.18,22.57-10.01,22.87-22.34.04-1.44-1.42-3.47-2.76-4.28-3.78-2.27-8.02-3.78-11.76-6.1-3.64-2.25-4.45-6.57-2.5-10.08,2.05-3.7,6.27-5.08,10.25-3.27,1.39.63,2.66,1.52,4,2.24,20.24,10.8,45.36,2.17,54.47-18.72,9.15-20.97-1.62-45.44-23.33-52.52-2.16-.71-4.93-.08-7.29.46-6.66,1.51-13.19,3.78-19.91,4.71-2.37.33-6.04-1.7-7.59-3.79-3.69-4.97.3-11.05,7.16-11.6,17.6-1.43,29.49-13.05,30.74-30.07.44-5.91,3.42-9.32,8.04-9.18,4.84.14,7.84,4.09,7.6,10.04-.04,1.07,0,2.19-.32,3.19-2.41,7.63-4.89,15.24-7.51,23.36Zm-101.88,122.1v-7.22c0-107.93-.12-215.86.21-323.79.03-9.2-2.64-15.44-9.24-21.77-37.59-36.05-95.36-43.72-140.64-18.08C21.95,109.05,9.28,204.65,66.83,262.96c56.89,57.64,113.86,115.2,170.8,172.78,1.14,1.15,2.36,2.23,4.5,4.24Z"/>
  <path class="cls-1" d="m281.3,216.9c.33-28.11,25.27-52.99,53.34-53.21,5.53-.04,8.99,2.72,9.23,7.38.26,4.94-2.83,7.87-8.74,8.29-21.81,1.55-36.61,16.4-38.17,38.3-.4,5.64-3.24,8.71-7.97,8.63-4.84-.08-7.77-3.66-7.7-9.4Z"/>
  <path class="cls-1" d="m146.03,69.73c1.22,0,2.45-.02,3.67,0,5.26.11,8.42,2.95,8.49,7.6.07,4.58-3.05,7.56-8.21,8.05-5.93.56-11.94.79-17.75,1.97-36.89,7.47-66.3,40.53-69.8,78.15-.2,2.13-.39,4.27-.66,6.4-.61,4.86-3.74,7.62-8.26,7.37-4.3-.24-7.75-3.67-7.27-8.37.77-7.58,1.64-15.25,3.5-22.62,11.2-44.34,51.84-77.32,96.28-78.55Z"/>
  <path class="cls-1" d="m68.13,209.46c-.19,4.88-2,7.5-5.58,8.7-3.7,1.23-7.02,0-8.69-3.23-1.86-3.61-3.2-7.65-3.92-11.65-.65-3.63,1.41-6.47,4.98-7.85,3.62-1.4,7.07-.54,8.84,2.68,2.09,3.82,3.19,8.18,4.37,11.36Z"/>
</svg>