<?xml version="1.0" encoding="UTF-8"?>
<svg xmlns="http://www.w3.org/2000/svg" xmlns:xlink="http://www.w3.org/1999/xlink" width="100px" height="100px" viewBox="0 0 100 98" version="1.1">
<g id="surface2">
<path style=" stroke:none;fill-rule:nonzero;fill:rgb(100%,100%,100%);fill-opacity:1;" d="M 96.46875 32.414062 C 89.3125 52.433594 82.0625 72.355469 74.808594 92.375 C 74.714844 92.753906 74.332031 92.945312 73.949219 92.945312 C 61.070312 93.230469 48.1875 93.519531 35.304688 93.804688 C 35.113281 93.804688 34.921875 93.707031 34.828125 93.707031 C 24.808594 87.511719 14.695312 81.410156 4.675781 75.214844 C 4.390625 75.023438 4.199219 74.738281 4.199219 74.453125 C 4.675781 51.667969 5.058594 28.980469 5.4375 6.199219 C 5.4375 5.722656 5.820312 5.339844 6.296875 5.339844 L 75.574219 3.625 C 84.445312 15.824219 87.5 20.117188 96.46875 32.414062 Z M 96.46875 32.414062 "/>
<path style=" stroke:none;fill-rule:nonzero;fill:rgb(79.607843%,86.27451%,7.45098%);fill-opacity:1;" d="M 76.910156 1.242188 L 4.007812 3.050781 C 3.53125 3.050781 3.148438 3.433594 3.148438 3.910156 C 2.765625 27.933594 2.289062 51.859375 1.910156 75.785156 C 1.910156 76.074219 2.097656 76.359375 2.386719 76.550781 C 12.976562 83.03125 23.570312 89.515625 34.066406 95.902344 C 34.253906 95.996094 34.351562 95.996094 34.542969 95.996094 C 48.089844 95.710938 61.640625 95.425781 75.285156 95.136719 C 75.667969 95.136719 75.953125 94.949219 76.144531 94.566406 C 83.777344 73.5 91.316406 52.527344 98.949219 31.460938 C 89.503906 18.589844 86.257812 14.109375 76.910156 1.242188 Z M 74.808594 92.375 C 74.714844 92.753906 74.332031 92.945312 73.949219 92.945312 C 61.070312 93.230469 48.1875 93.519531 35.304688 93.804688 C 35.113281 93.804688 34.921875 93.707031 34.828125 93.707031 C 24.808594 87.511719 14.695312 81.410156 4.675781 75.214844 C 4.390625 75.023438 4.199219 74.738281 4.199219 74.453125 C 4.675781 51.667969 5.058594 28.980469 5.4375 6.199219 C 5.4375 5.722656 5.820312 5.339844 6.296875 5.339844 L 75.574219 3.625 C 84.445312 15.921875 87.5 20.210938 96.375 32.507812 C 89.21875 52.433594 81.964844 72.355469 74.808594 92.375 Z M 74.808594 92.375 "/>
<path style=" stroke:none;fill-rule:nonzero;fill:rgb(21.960784%,57.647059%,60.784314%);fill-opacity:1;" d="M 29.007812 14.015625 C 30.34375 14.683594 31.296875 15.921875 32.25 17.066406 C 32.824219 17.734375 32.632812 18.6875 31.964844 19.351562 C 31.296875 20.019531 30.34375 20.117188 29.675781 19.542969 C 28.722656 18.78125 27.863281 17.921875 27.097656 16.96875 C 26.335938 16.113281 26.71875 14.871094 27.671875 14.300781 C 27.765625 14.207031 27.957031 14.109375 28.054688 14.109375 L 29.007812 14.109375 Z M 29.007812 14.015625 "/>
<path style=" stroke:none;fill-rule:nonzero;fill:rgb(21.960784%,57.647059%,60.784314%);fill-opacity:1;" d="M 17.9375 36.609375 C 18.417969 35.464844 19.273438 35.082031 20.417969 35.175781 C 21.183594 35.175781 21.945312 35.175781 22.710938 35.175781 C 23.949219 35.175781 24.714844 35.941406 24.714844 37.085938 C 24.714844 38.132812 23.949219 38.894531 22.710938 38.894531 C 21.945312 38.894531 21.183594 38.894531 20.417969 38.894531 C 19.273438 38.992188 18.511719 38.515625 18.035156 37.464844 Z M 17.9375 36.609375 "/>
<path style=" stroke:none;fill-rule:nonzero;fill:rgb(21.960784%,57.647059%,60.784314%);fill-opacity:1;" d="M 71.375 14.015625 C 71.753906 14.300781 72.136719 14.492188 72.421875 14.777344 C 72.996094 15.445312 72.996094 16.398438 72.421875 16.96875 C 71.660156 17.828125 70.800781 18.6875 69.941406 19.449219 C 69.273438 20.117188 68.226562 19.925781 67.558594 19.351562 C 66.890625 18.78125 66.699219 17.636719 67.367188 16.96875 C 68.320312 15.921875 69.464844 14.96875 70.609375 14.015625 Z M 71.375 14.015625 "/>
<path style=" stroke:none;fill-rule:nonzero;fill:rgb(21.960784%,57.647059%,60.784314%);fill-opacity:1;" d="M 29.007812 35.175781 C 30.152344 24.023438 38.835938 16.304688 50 16.398438 C 60.304688 16.492188 69.082031 23.546875 70.417969 35.175781 L 69.65625 35.175781 C 65.839844 35.175781 62.023438 35.175781 58.207031 35.175781 C 57.25 35.175781 56.582031 35.464844 55.917969 36.128906 C 54.867188 37.273438 53.722656 38.324219 52.671875 39.46875 C 52.386719 39.753906 52.195312 39.753906 51.910156 39.65625 C 48.664062 38.417969 45.039062 40.132812 44.082031 43.375 C 43.128906 46.617188 45.132812 50.046875 48.472656 50.714844 C 49.238281 50.90625 50.09375 50.90625 50.859375 50.714844 C 51.621094 50.523438 52.386719 50.238281 53.054688 49.761719 C 53.722656 49.285156 54.292969 48.714844 54.675781 47.953125 C 55.058594 47.285156 55.34375 46.425781 55.4375 45.664062 C 55.535156 44.710938 55.4375 43.660156 55.058594 42.707031 C 54.960938 42.519531 55.058594 42.136719 55.152344 42.042969 C 56.105469 41.085938 57.0625 40.039062 58.109375 39.085938 C 58.300781 38.992188 58.492188 38.800781 58.683594 38.800781 C 62.5 38.800781 66.222656 38.800781 70.039062 38.800781 C 70.132812 38.800781 70.230469 38.800781 70.324219 38.894531 C 70.132812 40.898438 69.65625 42.804688 68.988281 44.613281 C 67.84375 47.476562 66.125 50.046875 63.835938 52.144531 C 61.640625 54.148438 60.210938 56.53125 59.734375 59.484375 C 59.636719 59.960938 59.351562 59.867188 58.96875 59.867188 C 53.246094 59.867188 47.519531 59.867188 41.792969 59.867188 C 41.222656 59.867188 40.746094 59.867188 40.171875 59.867188 C 39.789062 59.867188 39.597656 59.773438 39.597656 59.390625 C 39.027344 56.53125 37.691406 54.242188 35.589844 52.242188 C 32.25 49.191406 30.152344 45.378906 29.199219 40.898438 C 29.101562 40.230469 29.007812 39.5625 28.914062 38.800781 L 29.675781 38.800781 C 33.492188 38.800781 37.308594 38.800781 41.125 38.800781 C 41.984375 38.800781 42.652344 38.515625 43.320312 37.941406 C 44.371094 36.796875 45.515625 35.75 46.660156 34.605469 C 46.851562 34.320312 47.042969 34.222656 47.421875 34.414062 C 49.714844 35.367188 52.195312 34.699219 53.914062 32.890625 C 55.535156 31.171875 55.917969 28.695312 54.867188 26.503906 C 53.816406 24.308594 51.621094 22.976562 49.238281 23.070312 C 45.417969 23.261719 42.652344 27.359375 44.082031 30.984375 C 44.273438 31.363281 44.179688 31.652344 43.894531 31.9375 C 42.9375 32.792969 42.082031 33.746094 41.125 34.699219 C 40.933594 34.890625 40.746094 34.988281 40.457031 34.988281 C 36.640625 34.988281 32.917969 34.988281 29.101562 34.988281 C 29.199219 35.175781 29.101562 35.175781 29.007812 35.175781 Z M 29.007812 35.175781 "/>
<path style=" stroke:none;fill-rule:nonzero;fill:rgb(21.960784%,57.647059%,60.784314%);fill-opacity:1;" d="M 47.804688 75.5 C 42.558594 74.261719 39.21875 69.78125 39.980469 63.777344 L 59.542969 63.777344 C 60.019531 67.492188 59.160156 71.304688 55.34375 73.878906 C 54.390625 74.546875 53.148438 74.929688 52.003906 75.40625 C 51.8125 75.5 51.621094 75.691406 51.621094 75.785156 C 51.429688 77.027344 50.761719 77.695312 49.714844 77.597656 C 48.664062 77.597656 47.996094 76.835938 47.902344 75.597656 C 47.902344 75.597656 47.902344 75.5 47.804688 75.5 Z M 47.804688 75.5 "/>
<path style=" stroke:none;fill-rule:nonzero;fill:rgb(21.960784%,57.647059%,60.784314%);fill-opacity:1;" d="M 30.4375 54.242188 C 31.394531 54.242188 31.964844 54.625 32.347656 55.292969 C 32.730469 55.957031 32.632812 56.625 32.15625 57.199219 C 31.394531 58.054688 30.535156 58.914062 29.675781 59.675781 C 29.007812 60.34375 27.863281 60.152344 27.195312 59.484375 C 26.527344 58.820312 26.429688 57.675781 27.097656 57.007812 C 27.863281 56.148438 28.625 55.386719 29.484375 54.625 C 29.867188 54.433594 30.25 54.339844 30.4375 54.242188 Z M 30.4375 54.242188 "/>
<path style=" stroke:none;fill-rule:nonzero;fill:rgb(21.960784%,57.647059%,60.784314%);fill-opacity:1;" d="M 78.246094 38.894531 C 77.765625 38.894531 77.195312 38.894531 76.71875 38.894531 C 75.667969 38.800781 75 38.039062 74.90625 37.085938 C 74.90625 36.128906 75.574219 35.273438 76.621094 35.175781 C 77.671875 35.082031 78.816406 35.082031 79.867188 35.175781 C 80.917969 35.273438 81.582031 36.035156 81.582031 36.988281 C 81.582031 37.941406 80.820312 38.703125 79.867188 38.800781 C 79.292969 38.992188 78.722656 38.894531 78.246094 38.894531 Z M 78.246094 38.894531 "/>
<path style=" stroke:none;fill-rule:nonzero;fill:rgb(21.960784%,57.647059%,60.784314%);fill-opacity:1;" d="M 72.804688 58.054688 C 72.804688 59.007812 72.421875 59.675781 71.753906 59.960938 C 71.085938 60.25 70.324219 60.25 69.75 59.675781 C 68.988281 58.914062 68.128906 58.152344 67.460938 57.390625 C 66.792969 56.625 66.890625 55.578125 67.558594 54.910156 C 68.226562 54.242188 69.273438 54.148438 70.039062 54.816406 C 70.800781 55.578125 71.660156 56.339844 72.328125 57.101562 C 72.613281 57.390625 72.710938 57.867188 72.804688 58.054688 Z M 72.804688 58.054688 "/>
<path style=" stroke:none;fill-rule:nonzero;fill:rgb(21.960784%,57.647059%,60.784314%);fill-opacity:1;" d="M 49.808594 31.171875 C 48.570312 31.171875 47.710938 30.316406 47.710938 29.078125 C 47.710938 28.789062 47.710938 28.503906 47.902344 28.21875 C 47.996094 27.933594 48.1875 27.742188 48.378906 27.550781 C 48.570312 27.359375 48.855469 27.171875 49.046875 27.074219 C 49.332031 26.980469 49.617188 26.882812 49.90625 26.882812 C 51.050781 26.882812 52.003906 27.835938 52.003906 28.980469 C 52.003906 29.265625 52.003906 29.554688 51.8125 29.839844 C 51.71875 30.125 51.527344 30.316406 51.335938 30.507812 C 51.144531 30.695312 50.953125 30.886719 50.667969 30.984375 C 50.382812 31.171875 50.09375 31.171875 49.808594 31.171875 Z M 49.808594 31.171875 "/>
<path style=" stroke:none;fill-rule:nonzero;fill:rgb(21.960784%,57.647059%,60.784314%);fill-opacity:1;" d="M 51.910156 45.089844 C 51.910156 45.378906 51.8125 45.664062 51.71875 45.949219 C 51.621094 46.234375 51.429688 46.425781 51.242188 46.617188 C 51.050781 46.808594 50.761719 47 50.574219 47.09375 C 50.285156 47.1875 50 47.285156 49.714844 47.285156 C 48.570312 47.285156 47.613281 46.332031 47.613281 45.089844 C 47.613281 44.519531 47.804688 44.042969 48.28125 43.660156 C 48.664062 43.28125 49.238281 43.089844 49.808594 43.089844 C 50.953125 42.996094 51.910156 43.851562 51.910156 45.089844 Z M 51.910156 45.089844 "/>
</g>
</svg>
