<?xml version="1.0" encoding="UTF-8"?>
<svg id="Layer_1" data-name="Layer 1" xmlns="http://www.w3.org/2000/svg" viewBox="0 0 500 500">
  <defs>
    <style>
      .cls-1 {
        fill: #fff;
      }

      .cls-2 {
        fill: #cbdc13;
      }

      .cls-3 {
        fill: #053a65;
      }
    </style>
  </defs>
  <path class="cls-1" d="m14.04,464.12c2.3-5.19,6.3-7.21,11.92-6.99,6.48.25,12.98.06,19.86.06,0-6.76-.08-12.95.01-19.14.79-54.62,25.86-93.29,75.94-115.5.42-.19.83-.41,1.82-.89-28.19-19.05-42.31-45.19-39.28-79.15,1.99-22.33,12.31-40.85,29.75-55.1,34.33-28.05,85.41-23.15,114.04,10.31,30.94,36.16,25.45,95.99-19.69,123.76,58.43,26.36,81.66,72.89,76.79,135.44,2.27.11,3.79.25,5.31.25,18.34.02,36.68-.06,55.03.08,2.99.02,4.74-.88,6.42-3.4,36.61-54.94,73.31-109.82,109.98-164.71.67-1,1.24-2.07,2.34-3.93h-5.95c-62.49,0-124.97,0-187.46,0-8.75,0-13.31-3.32-13.13-9.56.17-6.05,4.67-9.22,13.1-9.23,4.16,0,8.33,0,13.21,0-2.91-46.21,14.29-81.09,56.83-102.3-20.39-15.66-30.17-36.21-27.24-61.89,1.93-16.89,9.8-31,23.01-41.83,27.53-22.59,67.4-19.18,90.58,7.37,23.28,26.67,22.33,71.05-11.71,96.38,42.14,20.98,59.73,55.73,56.52,102.28,3.26,0,5.86.07,8.45-.02,4.21-.15,7.71,1.15,9.86,4.92,2.29,4.02,1.09,7.68-1.34,11.3-18.43,27.48-36.79,55-55.17,82.51-23.04,34.49-46.17,68.92-69.04,103.51-3.46,5.24-7.47,7.51-13.78,7.5-107.88-.12-215.75-.12-323.63,0-5.76,0-10.26-1.44-13.33-6.44v-5.6Zm252.01-7.15c0-11.99,1-23.56-.17-34.92-6.11-59.73-64.13-100.81-122.59-87.28-43.23,10.01-74.73,46.32-78.05,90.57-.78,10.42-.12,20.95-.12,31.63h200.92Zm-37.3-205.95c-.02-34.99-28.18-63.07-63.19-63.01-34.7.06-62.85,28.2-62.91,62.88-.06,35,28.07,63.22,63.01,63.2,35.08-.02,63.11-28.04,63.09-63.07Zm224.27,15.18c3.16-35.07-6.88-63.96-38.41-81.54-27.26-15.19-54.92-13.4-80.4,4.67-26.36,18.69-33.98,45.69-30.89,76.88h149.7Zm-75.1-109.51c25.46.16,46.33-20.49,46.44-45.96.12-25.39-20.52-46.22-46.04-46.46-25.31-.24-46.23,20.56-46.34,46.07-.1,25.64,20.25,46.18,45.93,46.35Z"/>
  <path class="cls-1" d="m190.57,25.29c14.91,0,29.89-.92,44.71.23,19.86,1.54,33.8,17.26,34.1,37.1.3,19.88.16,39.77.04,59.66-.06,9.04-6.9,13.11-14.98,9.03-10.53-5.31-20.93-10.87-31.49-16.1-2.25-1.12-4.97-1.8-7.48-1.82-21.28-.14-42.57-.05-63.85-.09-23.69-.04-39.67-16.07-39.7-39.85,0-5.43-.36-10.95.45-16.28,2.88-19.01,18.25-31.88,38.12-32.14,13.36-.18,26.72-.03,40.08-.03,0,.1,0,.19,0,.29Zm60.06,82.83c0-2.41,0-3.92,0-5.43,0-12.12.01-24.25,0-36.37-.02-15.34-7.14-22.43-22.62-22.44-25.02-.02-50.05,0-75.07,0-1.71,0-3.42.04-5.12.22-9.8,1.06-16.75,8.48-17.12,18.32-.12,3.26-.04,6.53-.03,9.79,0,15.02,7.23,22.22,22.34,22.23,21.61.01,43.21-.14,64.81.14,4,.05,8.22,1.31,11.93,2.95,6.8,3,13.29,6.68,20.88,10.58Z"/>
  <path class="cls-2" d="m266.04,456.97H65.12c0-10.68-.67-21.21.12-31.63,3.32-44.25,34.82-80.56,78.05-90.57,58.46-13.54,116.48,27.55,122.59,87.28,1.16,11.36.17,22.93.17,34.92Z"/>
  <path class="cls-2" d="m228.74,251.02c.02,35.03-28.01,63.06-63.09,63.07-34.94.02-63.07-28.2-63.01-63.2.06-34.68,28.21-62.82,62.91-62.88,35.01-.06,63.17,28.02,63.19,63.01Z"/>
  <path class="cls-3" d="m453.01,266.2h-149.7c-3.08-31.19,4.53-58.18,30.89-76.88,25.48-18.07,53.14-19.86,80.4-4.67,31.54,17.58,41.58,46.47,38.41,81.54Z"/>
  <path class="cls-3" d="m377.91,156.68c-25.68-.17-46.03-20.71-45.93-46.35.1-25.51,21.02-46.31,46.34-46.07,25.51.24,46.15,21.07,46.04,46.46-.12,25.47-20.99,46.12-46.44,45.96Z"/>
</svg>