<?xml version="1.0" encoding="UTF-8"?>
<svg xmlns="http://www.w3.org/2000/svg" xmlns:xlink="http://www.w3.org/1999/xlink" width="100px" height="100px" viewBox="0 0 100 98" version="1.1">
<g id="surface2">
<path style=" stroke:none;fill-rule:nonzero;fill:rgb(100%,100%,100%);fill-opacity:1;" d="M 96.46875 32.414062 C 89.3125 52.433594 82.0625 72.355469 74.808594 92.375 C 74.714844 92.753906 74.332031 92.945312 73.949219 92.945312 C 61.070312 93.230469 48.1875 93.519531 35.304688 93.804688 C 35.113281 93.804688 34.921875 93.707031 34.828125 93.707031 C 24.808594 87.511719 14.695312 81.410156 4.675781 75.214844 C 4.390625 75.023438 4.199219 74.738281 4.199219 74.453125 C 4.675781 51.667969 5.058594 28.980469 5.4375 6.199219 C 5.4375 5.722656 5.820312 5.339844 6.296875 5.339844 L 75.574219 3.625 C 84.445312 15.824219 87.5 20.117188 96.46875 32.414062 Z M 96.46875 32.414062 "/>
<path style=" stroke:none;fill-rule:nonzero;fill:rgb(79.607843%,86.27451%,7.45098%);fill-opacity:1;" d="M 76.910156 1.242188 L 4.007812 3.050781 C 3.53125 3.050781 3.148438 3.433594 3.148438 3.910156 C 2.765625 27.933594 2.289062 51.859375 1.910156 75.785156 C 1.910156 76.074219 2.097656 76.359375 2.386719 76.550781 C 12.976562 83.03125 23.570312 89.515625 34.066406 95.902344 C 34.253906 95.996094 34.351562 95.996094 34.542969 95.996094 C 48.089844 95.710938 61.640625 95.425781 75.285156 95.136719 C 75.667969 95.136719 75.953125 94.949219 76.144531 94.566406 C 83.777344 73.5 91.316406 52.527344 98.949219 31.460938 C 89.503906 18.589844 86.257812 14.109375 76.910156 1.242188 Z M 74.808594 92.375 C 74.714844 92.753906 74.332031 92.945312 73.949219 92.945312 C 61.070312 93.230469 48.1875 93.519531 35.304688 93.804688 C 35.113281 93.804688 34.921875 93.707031 34.828125 93.707031 C 24.808594 87.511719 14.695312 81.410156 4.675781 75.214844 C 4.390625 75.023438 4.199219 74.738281 4.199219 74.453125 C 4.675781 51.667969 5.058594 28.980469 5.4375 6.199219 C 5.4375 5.722656 5.820312 5.339844 6.296875 5.339844 L 75.574219 3.625 C 84.445312 15.921875 87.5 20.210938 96.375 32.507812 C 89.21875 52.433594 81.964844 72.355469 74.808594 92.375 Z M 74.808594 92.375 "/>
<path style=" stroke:none;fill-rule:nonzero;fill:rgb(21.960784%,57.647059%,60.784314%);fill-opacity:1;" d="M 51.527344 75.023438 L 51.527344 62.25 C 50.574219 62.25 49.714844 62.25 48.757812 62.25 C 46.851562 62.15625 45.515625 60.34375 46.183594 58.628906 C 46.375 58.152344 46.660156 57.675781 47.136719 57.292969 C 47.613281 57.007812 48.089844 56.816406 48.664062 56.722656 C 49.617188 56.722656 50.476562 56.722656 51.527344 56.722656 L 51.527344 45.855469 L 58.96875 45.855469 C 59.351562 47.761719 60.210938 49.285156 61.925781 50.335938 C 63.167969 51.097656 64.410156 51.382812 65.839844 51.289062 C 68.703125 51.097656 70.800781 49.191406 71.753906 45.855469 L 81.011719 45.855469 C 80.726562 47.476562 80.628906 49 80.25 50.523438 C 77.765625 61.105469 71.46875 68.542969 61.546875 72.832031 C 58.777344 74.070312 55.820312 74.738281 52.765625 75.023438 C 52.578125 75.023438 52.480469 75.121094 52.289062 75.121094 Z M 51.527344 75.023438 "/>
<path style=" stroke:none;fill-rule:nonzero;fill:rgb(21.960784%,57.647059%,60.784314%);fill-opacity:1;" d="M 18.605469 41.375 C 18.796875 40.132812 18.894531 38.800781 19.179688 37.65625 C 22.136719 25.261719 29.769531 17.257812 42.082031 13.730469 C 43.128906 13.441406 44.273438 13.253906 45.324219 13.0625 C 46.183594 12.964844 46.945312 12.871094 47.902344 12.777344 L 47.902344 25.550781 C 48.855469 25.550781 49.808594 25.550781 50.761719 25.550781 C 52.097656 25.644531 53.246094 26.695312 53.433594 27.933594 C 53.625 29.363281 52.765625 30.601562 51.429688 30.886719 C 50.667969 31.078125 49.90625 30.984375 49.140625 30.984375 C 48.757812 30.984375 48.378906 30.984375 47.996094 30.984375 L 47.996094 41.945312 L 40.554688 41.945312 C 40.171875 40.132812 39.3125 38.515625 37.59375 37.464844 C 36.355469 36.703125 35.113281 36.417969 33.683594 36.511719 C 30.820312 36.703125 28.722656 38.609375 27.765625 42.042969 L 18.605469 42.042969 Z M 18.605469 41.375 "/>
<path style=" stroke:none;fill-rule:nonzero;fill:rgb(21.960784%,57.647059%,60.784314%);fill-opacity:1;" d="M 18.605469 45.757812 L 31.394531 45.757812 C 31.394531 44.804688 31.394531 43.949219 31.394531 42.996094 C 31.488281 41.085938 33.300781 39.753906 35.019531 40.421875 C 36.070312 40.800781 36.832031 41.753906 36.832031 42.804688 C 36.832031 43.757812 36.832031 44.710938 36.832031 45.757812 L 47.804688 45.757812 L 47.804688 53.195312 C 45.898438 53.574219 44.371094 54.527344 43.320312 56.246094 C 42.558594 57.484375 42.269531 58.820312 42.367188 60.152344 C 42.558594 62.917969 44.5625 65.015625 47.804688 65.96875 L 47.804688 75.121094 L 47.042969 75.121094 C 46.851562 75.121094 46.753906 75.023438 46.566406 75.023438 C 44.5625 74.644531 42.460938 74.453125 40.554688 73.785156 C 29.007812 69.972656 21.851562 62.15625 18.988281 50.238281 C 18.703125 49 18.605469 47.761719 18.417969 46.523438 L 18.417969 45.757812 Z M 18.605469 45.757812 "/>
<path style=" stroke:none;fill-rule:nonzero;fill:rgb(21.960784%,57.647059%,60.784314%);fill-opacity:1;" d="M 51.621094 22.023438 L 51.621094 12.964844 C 66.316406 13.347656 80.058594 25.929688 80.820312 42.136719 L 68.128906 42.136719 C 68.128906 43.089844 68.128906 44.042969 68.128906 44.902344 C 68.128906 46.042969 67.558594 46.902344 66.507812 47.378906 C 65.457031 47.855469 64.503906 47.664062 63.644531 46.902344 C 62.976562 46.332031 62.691406 45.664062 62.691406 44.710938 C 62.691406 43.851562 62.691406 42.996094 62.691406 42.042969 L 51.621094 42.042969 L 51.621094 34.605469 C 53.433594 34.222656 55.058594 33.367188 56.105469 31.652344 C 56.871094 30.410156 57.15625 29.171875 57.0625 27.742188 C 56.871094 25.074219 54.960938 22.976562 51.621094 22.023438 Z M 51.621094 22.023438 "/>
</g>
</svg>
