<?xml version="1.0" encoding="UTF-8"?>
<svg id="Layer_2" data-name="Layer 2" xmlns="http://www.w3.org/2000/svg" viewBox="0 0 500 500">
  <defs>
    <style>
      .cls-1 {
        fill: #cbdc13;
      }
    </style>
  </defs>
  <path class="cls-1" d="m486.59,358.16c-3.31,8.93-9.94,12.09-19.15,11.82-11.7-.34-23.41.01-35.12-.15-2.95-.04-4.18.9-5.19,3.74-8.79,24.67-30.6,40.25-56.16,40.39-25.6.14-47.66-15.55-56.54-40.46-1.01-2.84-2.33-3.67-5.24-3.66-26.65.11-53.3.14-79.94-.03-3.53-.02-4.99,1.06-6.15,4.34-8.35,23.58-29.14,38.7-54.23,39.74-23.85.98-46.65-12.5-55.84-35.07-3.28-8.05-7.33-9.51-14.75-9.05-8.75.54-17.55.24-26.33.09-9.13-.16-15.43-5.51-16.1-13.33-.75-8.79,4.7-15.82,13.78-16.32,10.9-.6,21.87-.54,32.79-.15,4.89.17,7.06-1.11,8.74-5.94,8.24-23.68,31.07-39.49,55.94-39.35,25.12.14,47.6,15.85,55.84,39.55,1.51,4.35,3.26,5.79,7.96,5.74,25.88-.28,51.76-.15,77.63-.11,2.57,0,4.35-.02,5.44-3.3,8.52-25.58,31.17-42.07,56.98-41.87,26.2.2,48.14,16.51,56.79,42.2.29.86.62,1.71.97,2.68h27.82c.11-1.45.29-2.64.29-3.83.02-23.11.07-46.21-.09-69.32-.01-2.09-.98-4.49-2.25-6.2-5.4-7.3-11.2-14.31-16.59-21.62-1.94-2.63-3.98-3.59-7.27-3.58-36.04.12-72.09.08-108.13.08-12.85,0-18.24-5.39-18.25-18.25-.01-31.73,0-63.46,0-95.2,0-1.8,0-3.6,0-5.84h-6.49c-74.4,0-148.8,0-223.2-.03-2.6,0-5.27-.1-7.78-.7-7.13-1.71-11.44-8.02-10.94-15.55.46-7,5.86-12.55,13.03-13.34,1.53-.17,3.07-.22,4.61-.22,80.87-.01,161.74-.02,242.61,0,12.49,0,17.94,5.56,17.96,18.1,0,3.68,0,7.37,0,11.74,1.9,0,3.53,0,5.15,0,18.33,0,36.67.25,54.99-.11,9.04-.17,14.6,3.6,18.52,11.58,11.87,24.16,24.22,48.08,36.12,72.22,4.59,9.3,9.9,18.03,16.51,26.02,5.2,6.29,10.19,12.76,14.99,19.35,2.41,3.3,4.19,7.06,6.25,10.62v102.59Zm-68.72-153.09c-.25-.89-.3-1.35-.49-1.74-9.24-18.42-18.43-36.85-27.86-55.18-.66-1.29-3.02-2.41-4.6-2.43-15.86-.18-31.72-.11-47.58-.09-1.02,0-2.04.24-3.08.36v59.07h83.61Zm-46.88,179.05c16.28-.11,29.67-13.6,29.59-29.81-.07-16.29-13.45-29.56-29.8-29.57-16.51-.01-30.15,13.72-29.79,30.01.36,16.45,13.68,29.49,30,29.38Zm-174.32-29.14c.42-16.28-12.61-29.87-29.01-30.23-16.42-.36-30.01,12.53-30.42,28.86-.41,16.34,12.53,30.03,28.82,30.48,16.62.46,30.17-12.42,30.61-29.12Z"/>
  <path class="cls-1" d="m91.47,235.56c-20.02,0-40.04.02-60.06-.03-2.45,0-4.98-.04-7.33-.64-6.05-1.55-10.42-7.34-10.66-13.59-.25-6.48,3.84-12.62,9.98-14.55,2.16-.68,4.53-.96,6.81-.96,41.12-.06,82.24-.05,123.36-.01,1.98,0,4.02.22,5.92.73,6.86,1.83,11.4,8.28,10.9,15.22-.52,7.21-6.06,12.93-13.32,13.65-1.83.18-3.69.19-5.54.19-20.02.01-40.04,0-60.06,0Z"/>
  <path class="cls-1" d="m115.95,147.24c21.1,0,42.19-.07,63.29.04,8.64.04,14.81,5.62,15.37,13.43.64,8.85-5.51,15.89-14.51,16.2-7.23.25-14.47.08-21.71.08-34.65,0-69.29.02-103.94-.01-8.59,0-14.59-4.33-16.21-11.52-2.15-9.51,4.38-17.98,14.43-18.14,13.85-.22,27.72-.08,41.57-.08,7.24,0,14.47,0,21.71.01Z"/>
  <path class="cls-1" d="m87.17,264.59c11.55,0,23.11-.29,34.65.09,10.29.34,16.8,10.06,13.43,19.53-2.24,6.3-7.04,9.93-13.63,9.99-23.1.21-46.2.25-69.3,0-8.39-.09-14.63-6.99-14.57-14.94.06-8.08,6.19-14.44,14.78-14.63,11.54-.26,23.1-.06,34.65-.06,0,.01,0,.02,0,.04Z"/>
</svg>