<?xml version="1.0" encoding="UTF-8"?>
<svg id="Layer_1" data-name="Layer 1" xmlns="http://www.w3.org/2000/svg" viewBox="0 0 500 500">
  <defs>
    <style>
      .cls-1 {
        fill: #fff;
      }

      .cls-2 {
        fill: #cbdc13;
      }

      .cls-3 {
        fill: #053a65;
      }
    </style>
  </defs>
  <path class="cls-1" d="m441.77,276.57c0,5.56-.08,10.53.02,15.5.11,5.02-2.05,7.98-6.98,9.48-9.92,3.01-19.77,6.26-29.54,9.74-1.76.62-3.56,2.51-4.34,4.26-3.91,8.83-7.6,17.77-11.07,26.78-.69,1.78-.8,4.38,0,6.05,4.47,9.36,9.16,18.62,14.08,27.75,2.45,4.56,1.76,8.03-1.85,11.58-10.75,10.55-21.42,21.18-31.96,31.95-3.63,3.71-7.23,4.02-11.64,1.71-8.88-4.66-17.9-9.05-26.75-13.75-2.7-1.44-4.81-1.46-7.66-.14-8.3,3.84-16.72,7.46-25.31,10.58-3.21,1.17-4.66,2.77-5.6,5.86-2.87,9.42-6.15,18.71-9.04,28.13-1.54,5.02-4.44,7.25-9.84,7.17-14.89-.23-29.78-.22-44.67,0-5.41.08-8.28-2.19-9.81-7.2-2.94-9.58-5.99-19.14-9.39-28.56-.74-2.03-2.86-4.12-4.87-5.04-8.63-3.94-17.4-7.59-26.26-10.99-1.93-.74-4.75-.74-6.58.13-9.21,4.38-18.26,9.09-27.29,13.84-4.43,2.33-8.01,1.94-11.63-1.76-10.53-10.77-21.19-21.41-31.95-31.95-3.64-3.56-4.26-7.02-1.81-11.57,4.83-8.98,9.45-18.08,13.83-27.29.86-1.82.91-4.59.19-6.49-3.42-9.03-7.09-17.98-11.03-26.8-.84-1.89-2.87-3.87-4.79-4.55-9.61-3.39-19.33-6.51-29.09-9.42-4.94-1.47-7.09-4.44-6.98-9.47.11-4.97.02-9.94.02-15.51-10.97,0-21.32,0-31.66,0-2.25,0-4.51.05-6.75-.16-4.08-.37-6.4-2.88-6.43-6.81-.04-4.21,2.42-6.9,6.74-7,8.31-.19,16.62-.11,24.93-.13,6.53-.01,13.06,0,20.1,0,0-4.72,0-8.83,0-12.95,0-13.85-.36-27.71.11-41.55.85-25.35,12.64-44.41,34.37-57.38,2.06-1.23,4.23-2.28,6.38-3.44-19-22.66-19.81-45.55-2.33-62.34,15.9-15.27,40.87-15.55,56.94-.63,18.23,16.92,17.7,39.24-.98,62.22,8.13,5.98,16.28,11.98,23.84,17.54,10.85-7.24,22.07-14.73,32.98-22.01-30.55-23.84-25.3-62.2-5.76-81.15,21.25-20.62,55.09-20.17,75.61.99,19.33,19.93,22.62,57.32-6.81,80.12,10.94,7.27,22.14,14.73,33.11,22.02,7.38-5.44,15.53-11.44,23.93-17.62-10.09-9.29-15.73-21.34-14.16-36.13,1.19-11.19,6.27-20.4,14.89-27.59,16.24-13.55,40.79-12.19,55.76,2.83,13.46,13.5,19.48,40.29-1.8,60.53,7.99,6.77,16.86,12.93,24.01,20.67,10.7,11.58,15.45,26.06,15.6,41.85.16,15.93.05,31.85.05,47.78,0,1.86,0,3.73,0,6.22,5.97,0,11.46,0,16.95,0,8.66,0,17.31-.05,25.97.02,5.75.04,9,2.7,8.93,7.09-.06,4.39-3.25,6.93-9.09,6.97-9.87.07-19.74.02-29.61.02-1.86,0-3.72,0-6.22,0Zm-79.63,130.66c8.77-8.69,17.43-17.13,25.84-25.82.84-.86.66-3.52,0-4.89-4.29-8.87-8.77-17.64-13.35-26.37-1.87-3.57-1.47-6.67.15-10.31,4.9-11.02,9.58-22.15,13.88-33.42,1.45-3.79,3.41-6.12,7.22-7.31,9.4-2.94,18.71-6.16,28.13-9.04,2.57-.79,3.79-1.87,3.55-4.67-.22-2.71-.05-5.46-.05-8.5h-62.98c-4.56,57.74-50.55,102.5-108.11,104.94-25.36,1.07-48.69-5.82-69.31-20.65-28.76-20.68-44.22-49.18-47.59-84.6-20.16,0-39.88,0-59.59.02-1,0-2,.24-3.48.42,0,2.21.26,4.29-.05,6.27-.71,4.5,1.33,6.31,5.5,7.49,8.47,2.39,16.72,5.6,25.19,8.01,4.72,1.34,6.94,4.11,8.6,8.6,4.02,10.82,8.45,21.5,13.23,32.01,1.82,4,2.29,7.33.21,11.24-4.54,8.55-8.94,17.18-13.17,25.88-.66,1.36-.85,4.02-.02,4.89,8.4,8.69,17.06,17.14,25.82,25.83,9.93-5.03,19.84-9.91,29.6-15.07,3.62-1.91,6.59-1.52,10.24.11,11.02,4.9,22.19,9.48,33.43,13.83,3.73,1.44,6.09,3.41,7.28,7.28,2.83,9.25,6.03,18.39,8.86,27.64.9,2.95,2.31,4.08,5.47,4.02,10.21-.19,20.43-.19,30.64,0,3.15.06,4.58-1.06,5.47-4.01,2.7-8.93,5.78-17.74,8.48-26.67,1.38-4.56,4.04-6.88,8.65-8.53,10.7-3.83,21.22-8.26,31.52-13.07,4.34-2.03,7.82-2.56,12.13-.22,9.4,5.11,19.02,9.8,28.61,14.7Zm-37.23-145.06c0-15.3,1.13-30.23-.22-44.94-3.26-35.53-31.44-61.91-68.19-65.23-32.5-2.94-64.93,19.41-74.78,51.76-5.82,19.1-2.45,38.71-3.41,58.41h146.6Zm-170.38,14.71c1.26,43.54,40.9,92.17,99.87,90.73,58.84-1.44,94.34-51.3,94.89-90.73h-194.76Zm9.79-14.66c0-11.87.1-23.25-.02-34.62-.19-17,3.65-32.92,12.67-47.41,1.67-2.69.88-4.24-.9-6.26-13.83-15.78-36.8-21.85-56.81-14.91-20.62,7.15-35.13,26.15-35.65,47.65-.42,17.63-.15,35.29-.16,52.93,0,.81.27,1.62.46,2.62h80.42Zm255.81-.04c.17-1.26.43-2.25.43-3.24-.02-17.47.28-34.95-.21-52.4-.6-21.39-14.9-40.15-35.27-47.38-19.98-7.09-42.8-1.22-56.93,14.48-2.16,2.39-2.2,4.04-.89,7.14,4.12,9.8,9.26,19.67,10.71,29.98,2.09,14.96,1.3,30.33,1.75,45.52.06,1.98.2,3.96.3,5.91h80.12ZM252.11,59.87c-21.58-.08-38.96,17.13-39.05,38.66-.09,21.44,17.27,38.94,38.76,39.06,21.42.12,38.91-17.25,39.04-38.77.13-21.5-17.15-38.87-38.75-38.95Zm-88.41,55.03c.1-15.16-12.04-27.52-27.11-27.61-15.02-.09-27.4,12.24-27.42,27.32-.03,15.03,12.42,27.47,27.39,27.37,14.87-.1,27.05-12.25,27.14-27.08Zm176.55-.08c.07,15.05,12.61,27.42,27.56,27.16,14.89-.25,26.91-12.43,26.94-27.29.03-15.08-12.29-27.43-27.33-27.4-15.04.03-27.24,12.39-27.18,27.53Z"/>
  <path class="cls-3" d="m362.14,407.23c-9.59-4.9-19.21-9.59-28.61-14.7-4.32-2.35-7.79-1.81-12.13.22-10.3,4.81-20.81,9.25-31.52,13.07-4.62,1.65-7.28,3.97-8.65,8.53-2.69,8.93-5.78,17.74-8.48,26.67-.89,2.96-2.32,4.07-5.47,4.01-10.21-.19-20.43-.19-30.64,0-3.16.06-4.57-1.07-5.47-4.02-2.83-9.25-6.03-18.39-8.86-27.64-1.18-3.87-3.55-5.83-7.28-7.28-11.25-4.35-22.42-8.93-33.43-13.83-3.65-1.62-6.63-2.02-10.24-.11-9.76,5.16-19.67,10.04-29.6,15.07-8.76-8.69-17.42-17.13-25.82-25.83-.83-.86-.65-3.52.02-4.89,4.23-8.71,8.63-17.33,13.17-25.88,2.08-3.92,1.6-7.24-.21-11.24-4.78-10.51-9.21-21.19-13.23-32.01-1.67-4.49-3.89-7.25-8.6-8.6-8.47-2.41-16.71-5.61-25.19-8.01-4.18-1.18-6.22-2.99-5.5-7.49.32-1.99.05-4.07.05-6.27,1.48-.19,2.48-.42,3.48-.42,19.71-.02,39.43-.02,59.59-.02,3.37,35.41,18.83,63.91,47.59,84.6,20.62,14.83,43.95,21.73,69.31,20.65,57.56-2.44,103.55-47.19,108.11-104.94h62.98c0,3.04-.18,5.79.05,8.5.23,2.8-.98,3.88-3.55,4.67-9.42,2.88-18.73,6.1-28.13,9.04-3.81,1.19-5.77,3.53-7.22,7.31-4.3,11.27-8.99,22.4-13.88,33.42-1.62,3.64-2.02,6.74-.15,10.31,4.57,8.73,9.06,17.5,13.35,26.37.66,1.37.84,4.02,0,4.89-8.4,8.69-17.07,17.13-25.84,25.82Z"/>
  <path class="cls-2" d="m164.32,262.22h-80.42c-.18-1.01-.46-1.82-.46-2.62,0-17.64-.26-35.3.16-52.93.51-21.5,15.02-40.5,35.65-47.65,20.02-6.94,42.98-.87,56.81,14.91,1.77,2.02,2.57,3.58.9,6.26-9.02,14.49-12.85,30.41-12.67,47.41.12,11.38.02,22.75.02,34.62Z"/>
  <path class="cls-2" d="m420.12,262.17h-80.12c-.1-1.95-.24-3.93-.3-5.91-.45-15.19.34-30.56-1.75-45.52-1.44-10.31-6.58-20.18-10.71-29.98-1.31-3.1-1.26-4.75.89-7.14,14.13-15.7,36.95-21.57,56.93-14.48,20.38,7.23,34.67,25.99,35.27,47.38.49,17.46.19,34.93.21,52.4,0,.99-.26,1.99-.43,3.24Z"/>
  <path class="cls-2" d="m163.7,114.91c-.09,14.82-12.28,26.98-27.14,27.08-14.97.1-27.42-12.34-27.39-27.37.03-15.08,12.41-27.41,27.42-27.32,15.07.09,27.21,12.45,27.11,27.61Z"/>
  <path class="cls-2" d="m340.25,114.82c-.07-15.14,12.14-27.5,27.18-27.53,15.04-.03,27.36,12.33,27.33,27.4-.03,14.86-12.06,27.04-26.94,27.29-14.95.25-27.5-12.11-27.56-27.16Z"/>
  <path class="cls-1" d="m243.45,330.13c13.01-13.89,25.3-27,37.59-40.12,1.06-1.14,2.08-2.32,3.2-3.4,3.63-3.51,7.48-3.8,10.55-.85,2.9,2.77,2.88,7.1-.39,10.64-9.85,10.68-19.8,21.27-29.71,31.89-4.72,5.06-9.4,10.16-14.17,15.17-4.63,4.86-8.14,5-12.82.42-6.06-5.93-12.05-11.93-17.99-17.98-3.92-3.99-4.22-8.3-.98-11.32,3.18-2.97,7.07-2.63,10.94,1.24,4.51,4.51,8.86,9.19,13.77,14.3Z"/>
</svg>