<?xml version="1.0" encoding="UTF-8"?>
<svg id="Layer_1" data-name="Layer 1" xmlns="http://www.w3.org/2000/svg" viewBox="0 0 500 500">
  <defs>
    <style>
      .cls-1 {
        fill: #fff;
      }

      .cls-2 {
        fill: #cbdc13;
      }

      .cls-3 {
        fill: #053a65;
      }
    </style>
  </defs>
  <path class="cls-1" d="m337.92,346.65c-22.92,19.85-49.09,30.71-78.97,32.87v31.83c11.74,3.03,20.98,9.65,26.52,20.79,4.14,8.34,5.07,17.12,2.91,26.2-4.24,17.82-20.85,30.09-39.57,29.23-18.2-.83-33.27-14.82-35.97-33.56-2.07-14.36,4.88-35.79,30.28-42.72v-31.7c-32.57-2.56-60.97-14.84-84.23-38.01-23.3-23.21-35.83-51.5-38.4-84.51h-16.33c-3.15,14.61-11.12,26.1-24.79,33.12-9.91,5.09-20.43,6.32-31.31,3.83-21.87-5-36.71-24.99-35.61-47.9,1.05-22.02,18.68-40.35,41.39-43.03,23.23-2.74,42.29,11.58,50.5,38.08h16.14c2.18-29.72,12.92-55.94,32.28-78.22-23.82-23.79-47.47-47.41-71.66-71.56-7.65,4.08-16.75,5.31-26.12,1.59-6.62-2.63-11.78-7.07-15.36-13.25-7.18-12.4-4.8-28.14,5.67-37.86,10.53-9.78,26.3-11.03,38.17-3.03,13.25,8.93,16.57,23.38,9.69,40.87,23.79,23.81,47.44,47.48,71.35,71.41,22.44-19.46,48.59-30.36,78.54-32.53v-31.82c-11.9-3.16-21.36-9.93-26.83-21.56-3.9-8.3-4.67-16.92-2.47-25.79,4.41-17.78,21.18-29.9,39.85-28.87,18.19,1,33.22,15.17,35.66,33.89,1.99,15.25-6.05,35.84-30.27,42.34v31.79c29.83,2.16,56.01,13.01,78.43,32.43,11.01-11.07,21.81-21.95,32.85-33.05-6.77-17.9-3.17-32.46,10.62-41.13,12.45-7.83,28.69-5.8,38.73,4.85,10.12,10.73,11.28,26.93,2.78,38.92-9.17,12.94-23.97,16.18-40.6,8.96-10.9,10.84-21.79,21.65-32.97,32.76,9.63,11.18,17.44,23.39,23.05,36.95,5.54,13.41,8.59,27.42,9.69,41.91h16.16c8.17-26.89,28.45-41.63,51.93-37.88,23.85,3.81,40.29,22.98,40.01,46.68-.26,22.85-17.45,41.89-40.88,44.94-19.06,2.48-44.22-8.22-50.97-37.94h-16.24c-2.18,29.63-12.86,55.86-32.22,78.19,11.01,10.88,21.89,21.65,33.33,32.96,7.28-3.86,16.23-5.15,25.47-1.62,6.66,2.55,11.88,6.88,15.54,13.02,7.34,12.29,5.22,28.1-5.09,37.94-10.52,10.06-26.51,11.43-38.53,3.32-13.2-8.91-16.49-23.21-9.62-41.04-10.75-10.94-21.41-21.78-32.51-33.08Zm-91.67,17.83c34.83.04,64.79-12.22,85.52-33.36,1.38-1.4,2.41-4.21,2.07-6.07-6.38-34.71-26.79-57.21-60.17-68.1-3.85-1.26-6.78-3.02-7.18-7.3-.38-4.09,2.15-6.34,5.45-8.23,12.86-7.36,18.32-18.67,17.48-33.27-1.25-21.75-21.45-38.65-42.86-35.84-22.36,2.94-37.84,24-33.55,45.65,2.09,10.54,7.77,18.46,17.24,23.58,3.37,1.82,5.71,4.27,5.24,8.33-.47,4.03-3.18,6.08-6.93,7-.77.19-1.52.49-2.28.75-32.3,11.2-51.72,33.54-58.32,67.12-.59,3,.31,4.72,2.31,6.64,22.51,21.67,49.44,32.5,75.97,33.08Zm100.63-52.59c26.42-35.18,30.7-102.4-17.35-147.56-47.36-44.52-123-40.42-166.15,9.56-40.46,46.87-31.05,109.09-8.16,137.75,8.92-29.92,27.55-51.54,55.56-65.11-22.46-25.46-14.3-59.16,3.43-75.31,20.24-18.44,50.13-19.18,71.25-2.13,17.64,14.24,30.27,49.26,5.89,77.53,28.03,13.55,46.54,35.27,55.52,65.27ZM58.6,218.27c-17.01-.03-30.86,13.84-30.82,30.85.04,16.81,13.74,30.6,30.5,30.7,17.04.1,30.97-13.63,31.07-30.63.1-17-13.72-30.9-30.75-30.93Zm385.08,0c-17.03-.12-30.98,13.65-31.03,30.64-.05,16.83,13.56,30.72,30.28,30.92,17.07.2,31.09-13.44,31.28-30.41.19-17.01-13.54-31.02-30.53-31.14ZM251,25.9c-12.76,0-23.13,10.46-23.07,23.3.05,12.51,10.52,22.88,23.05,22.83,12.62-.05,22.96-10.27,23.08-22.82.13-12.78-10.28-23.29-23.06-23.3Zm.06,446.29c12.76-.02,23.1-10.52,23.01-23.37-.08-12.5-10.59-22.84-23.12-22.76-12.63.09-22.93,10.32-23.02,22.88-.09,12.76,10.36,23.27,23.12,23.25ZM81.64,64.4c0-8.42-6.81-15.31-15.21-15.41-8.57-.1-15.64,6.98-15.53,15.56.1,8.38,7.03,15.19,15.45,15.18,8.33-.01,15.3-6.99,15.3-15.33Zm330.98,38.63c.11-8.39-6.64-15.38-15.05-15.57-8.39-.2-15.48,6.55-15.69,14.91-.21,8.62,6.69,15.77,15.28,15.82,8.4.05,15.35-6.77,15.46-15.16Zm0,292.11c-.07-8.39-6.95-15.22-15.38-15.25-8.38-.03-15.33,6.86-15.36,15.24-.04,8.61,7.02,15.62,15.61,15.5,8.38-.12,15.2-7.1,15.14-15.49Z"/>
  <path class="cls-1" d="m85.33,425.97c7.19,16.89,3.82,31.74-9.36,40.82-12.09,8.33-28.33,6.95-38.89-3.31-10.5-10.2-12.32-26.51-4.33-38.8,8.83-13.57,23.71-17.12,41.4-9.99,10.52-10.43,20.98-20.82,31.47-31.16,4.01-3.95,7.56-4.59,11.1-2.13,4.29,2.97,4.57,8.15.39,12.43-10.41,10.66-20.94,21.21-31.77,32.15Zm-26.79,30.85c8.33.04,15.35-6.89,15.4-15.22.05-8.42-6.7-15.36-15.11-15.51-8.58-.16-15.69,6.87-15.64,15.45.05,8.39,6.93,15.24,15.34,15.28Z"/>
  <path class="cls-1" d="m434.57,72.6c-1.78-1.54-4.55-2.87-5.42-4.99-.88-2.13-.88-5.9.46-7.45,5.31-6.13,11.1-11.89,17.12-17.34,3.08-2.78,6.95-2.27,9.92.76,2.81,2.85,3.39,6.62.75,9.54-5.56,6.13-11.58,11.85-17.58,17.57-1.03.98-2.89,1.09-5.26,1.92Z"/>
  <path class="cls-1" d="m126.86,380.51c-1.77-1.39-4.7-2.61-5.53-4.67-.92-2.28-.99-6.24.42-7.89,5.17-6.06,10.93-11.66,16.82-17.04,3.13-2.86,6.92-2.36,9.94.62,2.85,2.82,3.56,6.58.88,9.53-5.57,6.15-11.62,11.86-17.61,17.61-.93.89-2.6,1.01-4.91,1.84Z"/>
  <path class="cls-2" d="m246.24,364.48c-26.53-.58-53.46-11.41-75.97-33.08-2-1.92-2.9-3.65-2.31-6.64,6.6-33.58,26.02-55.92,58.32-67.12.76-.26,1.5-.56,2.28-.75,3.75-.92,6.46-2.97,6.93-7,.47-4.07-1.87-6.51-5.24-8.33-9.47-5.12-15.15-13.04-17.24-23.58-4.29-21.65,11.19-42.71,33.55-45.65,21.41-2.81,41.61,14.09,42.86,35.84.84,14.6-4.63,25.91-17.48,33.27-3.29,1.88-5.83,4.14-5.45,8.23.4,4.27,3.33,6.04,7.18,7.3,33.38,10.89,53.79,33.39,60.17,68.1.34,1.87-.69,4.67-2.07,6.07-20.73,21.13-50.69,33.39-85.52,33.36Z"/>
  <path class="cls-3" d="m443.68,218.27c16.99.12,30.72,14.13,30.53,31.14-.19,16.97-14.22,30.61-31.28,30.41-16.72-.2-30.33-14.08-30.28-30.92.05-16.99,14-30.76,31.03-30.64Z"/>
  <path class="cls-3" d="m251,25.9c12.78,0,23.18,10.52,23.06,23.3-.12,12.55-10.46,22.77-23.08,22.82-12.52.05-23-10.32-23.05-22.83-.06-12.84,10.31-23.31,23.07-23.3Z"/>
  <path class="cls-3" d="m251.06,472.19c-12.77.02-23.21-10.48-23.12-23.25.09-12.56,10.39-22.79,23.02-22.88,12.53-.09,23.03,10.25,23.12,22.76.08,12.84-10.26,23.34-23.01,23.37Z"/>
  <path class="cls-2" d="m81.64,64.4c0,8.34-6.96,15.31-15.3,15.33-8.42.01-15.35-6.79-15.45-15.18-.1-8.58,6.96-15.66,15.53-15.56,8.4.1,15.21,6.99,15.21,15.41Z"/>
  <path class="cls-2" d="m412.62,103.03c-.11,8.39-7.07,15.21-15.46,15.16-8.59-.05-15.49-7.2-15.28-15.82.21-8.36,7.3-15.11,15.69-14.91,8.41.2,15.16,7.18,15.05,15.57Z"/>
  <path class="cls-3" d="m412.62,395.15c.07,8.39-6.75,15.36-15.14,15.49-8.59.12-15.65-6.88-15.61-15.5.04-8.38,6.99-15.27,15.36-15.24,8.43.03,15.31,6.86,15.38,15.25Z"/>
  <path class="cls-2" d="m58.54,456.82c-8.42-.04-15.3-6.9-15.34-15.28-.05-8.58,7.06-15.61,15.64-15.45,8.4.15,15.16,7.09,15.11,15.51-.05,8.33-7.07,15.26-15.4,15.22Z"/>
</svg>