<?xml version="1.0" encoding="UTF-8"?>
<svg id="Layer_2" data-name="Layer 2" xmlns="http://www.w3.org/2000/svg" viewBox="0 0 500 500">
  <defs>
    <style>
      .cls-1 {
        fill: #cbdc13;
      }
    </style>
  </defs>
  <path class="cls-1" d="m365.73,250.79c-26.82,0-53.63,0-80.45,0-16.05,0-23.93-7.92-23.93-24.02,0-29.6-.03-59.21.05-88.81,0-2.98-.66-5.07-3.06-7.16-5.79-5.04-9.18-11.6-10.26-19.26-1.54-10.95-.73-21.06,5.65-31.02,10.6-16.54,20.01-33.84,29.68-50.97,5.42-9.61,13.29-14.01,24.31-13.97,38.91.16,77.82.16,116.73,0,11.03-.04,18.83,4.47,24.25,14.07,10.51,18.6,20.85,37.33,32.2,55.42,6.9,11,3.91,37.99-7.25,45.85-2.64,1.86-3.13,4.14-3.12,7.12.08,30.07.06,60.14.05,90.21,0,14.24-8.23,22.5-22.53,22.53-27.44.05-54.87.01-82.31.02Zm-66.26-13.08v-5.69c0-20.3-.02-40.6.01-60.91,0-6.54,2.11-8.67,8.57-8.68,16.58-.03,33.17-.02,49.75,0,7.39,0,9.3,1.92,9.31,9.36.02,20.15,0,40.29,0,60.44,0,1.66,0,3.33,0,5.25,1.84.11,3.19.27,4.55.27,25.26.01,50.53.02,75.79,0,7.84,0,10.1-2.35,10.1-10.37,0-27.74,0-55.48,0-83.22,0-1.52,0-3.03,0-4.85-14.29,2.36-25.98-2.03-35.71-11.96-7.79,8.42-17.08,12.64-27.97,12.62-11.03-.02-20.33-4.54-27.82-12.59-14.85,15.7-38.77,17.72-56.17.08-9.57,10.18-21.44,14.02-35.52,11.95,0,14.13,0,27.75,0,41.37,0,15.96-.03,31.93.02,47.89.02,5.57,2.4,8.69,7.3,8.95,5.69.3,11.41.07,17.79.07Zm13.29-62.07v61.83h40.98v-61.83h-40.98Zm13.67-146.98c-6.71,0-12.89.18-19.05-.05-5.75-.22-9.65,2.07-12.49,7.07-9.01,15.89-18.21,31.67-27.32,47.5-.64,1.11-1.11,2.32-1.86,3.91,12.82,0,24.9.11,36.98-.15,1.36-.03,3.34-1.9,3.91-3.36,3.1-7.92,5.84-15.98,8.71-23.99,3.65-10.16,7.31-20.32,11.12-30.93Zm79.17.04c6.92,19.2,13.54,37.63,20.26,56.03.34.94,1.57,2.22,2.4,2.23,12.46.14,24.93.1,37.55.1-.08-.94.02-1.46-.18-1.79-9.95-17.27-19.77-34.62-30.08-51.68-1.43-2.36-5.12-4.4-7.95-4.67-7.04-.66-14.18-.22-22.01-.22Zm-86.17,58.07h39.87V28.66c-5.04,0-9.82.19-14.57-.07-3.26-.18-4.87.79-5.99,4.06-4.96,14.48-10.25,28.85-15.43,43.26-1.24,3.45-2.47,6.91-3.88,10.87Zm53.46-58.11v58.17h39.16c0-.63.12-1.12-.02-1.52-6.5-18.18-13-36.36-19.63-54.48-.35-.95-1.9-2.04-2.92-2.08-5.39-.21-10.79-.1-16.59-.1Zm-55.77,71.65c-1.6,13.5-1.35,16.05,7.91,22.7,8.14,5.84,19.41,5.17,27.35-.87,7.14-5.43,9.18-12.35,6.36-21.83h-41.62Zm98,.18h-42.03c-1.81,9.73-.64,17.98,8.66,23.09,8.64,4.75,17.08,4.48,25.5-.61,8.73-5.28,9.37-13.36,7.87-22.48Zm13.92-.22c-1.67,9.91-.7,18.33,8.9,23.42,8.48,4.49,16.94,4.83,24.92-.8,7.79-5.49,9.51-13.47,8.27-22.61h-42.1Zm-168.35.06c-.93,10.39,1.36,18.92,10.6,23.91,8.75,4.72,17.27,3.33,25.37-2.24,8.06-5.54,7.38-13.4,6.41-21.66h-42.38Z"/>
  <path class="cls-1" d="m133.73,484.42c-27.28,0-54.56.01-81.84,0-14.02-.01-22.31-8.23-22.32-22.17-.02-30.22-.04-60.44.04-90.67,0-2.81-.61-4.81-2.87-6.79-7.25-6.35-10.39-14.65-11.15-24.2-.79-9.93,1.42-18.59,6.8-27.18,10.18-16.26,19.53-33.05,28.9-49.81,5.58-9.99,13.75-14.42,25.07-14.38,38.6.14,77.19.13,115.79.01,11.12-.03,19.17,4.37,24.69,14.19,10.39,18.49,21.17,36.76,31.77,55.14,7.88,13.65,5.15,34.7-6.26,45.44-2.79,2.63-3.63,5.19-3.62,8.82.12,29.45.08,58.89.07,88.34,0,15.2-8.05,23.25-23.21,23.26-27.28,0-54.56,0-81.84,0Zm56.53-123.15c-15.72,16.02-39.03,17.11-56.1.23-17.69,17.33-40.64,15.3-56.18-.16-9.58,9.82-21.2,14-34.83,11.83-.2.42-.45.7-.45.98-.04,30.07-.1,60.14-.04,90.21,0,3.92,2.47,6.61,6.29,6.85,6.12.38,12.27.1,18.73.1,0-2.2,0-3.88,0-5.56,0-20.15,0-40.3,0-60.45,0-7.38,1.9-9.23,9.4-9.24,16.12,0,32.25,0,48.37,0,7.84,0,9.65,1.74,9.66,9.48.02,20,0,39.99,0,59.99,0,1.82,0,3.65,0,5.87,2.06,0,3.57,0,5.09,0,25.12,0,50.23,0,75.35,0,7.91,0,10.2-2.31,10.2-10.27.01-27.75,0-55.49,0-83.24v-4.77c-14.27,2.13-25.96-1.89-35.51-11.85Zm-109.22,48.03v61.87h40.79v-61.87h-40.79Zm93.38-146.87c-.14.43-.26.61-.22.73,6.58,18.5,13.16,37,19.84,55.47.32.88,1.63,1.99,2.49,2,12.48.13,24.95.09,37.42.09,0-.79.11-1.15-.02-1.37-9.96-17.3-19.8-34.69-30.09-51.79-1.45-2.4-5.05-4.62-7.85-4.89-7.17-.69-14.44-.23-21.58-.23Zm-80.23-.14c-6.68,0-12.97.05-19.26-.02-5.29-.06-9.07,2.12-11.73,6.79-9.25,16.26-18.67,32.42-28,48.63-.47.83-.7,1.79-1.17,3.02,12.57,0,24.63.11,36.69-.15,1.37-.03,3.42-1.81,3.95-3.23,6.33-17.09,12.44-34.27,18.59-51.43.35-.98.53-2.03.93-3.62Zm86,58.2c0-.68.13-1.18-.02-1.59-6.47-18.06-12.95-36.11-19.51-54.13-.35-.97-1.5-2.31-2.32-2.34-5.8-.2-11.62-.11-17.43-.11v58.17h39.28Zm-52.99.05v-58.25c-5.1,0-9.89.23-14.63-.08-3.25-.21-4.61,1.04-5.63,3.97-4.72,13.57-9.65,27.07-14.5,40.6-1.61,4.48-3.19,8.97-4.89,13.76h39.66Zm13.84,13.44c-1.54,9.25-.86,17.34,7.96,22.84,8.1,5.04,18.34,5.19,26.28-.08,7.78-5.17,9.99-11.57,7.77-22.75h-42Zm-55.91.01c-2.01,10.08-.38,18.32,8.99,23.43,8.65,4.71,17.08,4.29,25.45-.85,8.76-5.39,8.84-13.6,7.57-22.58h-42.01Zm-56.26-.06c-.73,12.56,2.54,20.02,10.8,24.18,8.91,4.49,17.31,3.06,25.33-2.57,8.02-5.62,7.01-13.54,6.19-21.61H28.86Zm168.25-.02c-1.68,9.89-.69,18.36,8.91,23.48,8.49,4.53,16.97,4.86,24.97-.79,7.8-5.51,9.43-13.55,8.37-22.69h-42.25Z"/>
  <path class="cls-1" d="m149.87,159.2c5.67,1.83,10.11,3.15,14.48,4.7,8.73,3.09,10.69,12.47,3.49,18.21-19.74,15.76-39.63,31.33-59.59,46.79-6.52,5.05-14.03,2.52-16.5-5.42-7.48-24.08-14.76-48.23-22.19-72.33-1.31-4.25-.7-7.97,2.47-11.12,3.23-3.21,7.13-3.38,11.23-2.11,5,1.55,9.99,3.15,14.75,4.65,4.25-7.26,7.86-14.48,12.42-21.03,18.06-25.97,43.72-40.18,74.16-46.18,10.74-2.12,21.79-2.75,32.73-3.68,5.68-.49,9.35,2.23,10.34,6.6,1.03,4.55-.91,8.1-6.13,10.68-23.43,11.57-43.87,26.85-58.95,48.47-4.65,6.67-8.27,14.07-12.72,21.77Zm48.92-73.19c-3.53.56-5.82.86-8.08,1.3-38.34,7.41-67.02,27.04-81.68,64.47-2.06,5.27-4.74,6.44-10.24,4.77-4.93-1.5-9.84-3.07-15.43-4.82,6.74,22.05,13.19,43.14,19.8,64.75,17.8-13.98,35.03-27.53,52.85-41.53-4.63-1.51-8.43-2.78-12.24-3.98-8.05-2.54-9.24-4.7-6.56-12.52,7.91-23.13,22.63-41.41,41.07-56.91,6.24-5.24,12.99-9.87,20.52-15.53Z"/>
  <path class="cls-1" d="m401.5,357.28c-7.69,17.64-18.32,32.31-33.01,43.84-21.33,16.74-46.11,24.13-72.67,26.55-4.47.41-8.97.67-13.46.76-5.33.12-8.92-2.41-9.9-6.65-1.02-4.44.8-8.04,5.7-10.45,19.83-9.74,37.52-22.31,52.01-39.12,8.04-9.33,14.67-19.53,19.25-31.59-4.21-1.39-8.22-2.83-12.3-4.02-4.47-1.31-7.96-3.57-8.88-8.44-.96-5.07,1.59-8.46,5.42-11.45,19.06-14.86,38.03-29.85,57.06-44.75,7.7-6.02,15.14-3.81,17.99,5.43,7.31,23.65,14.47,47.35,21.75,71.01,1.34,4.36,1.02,8.29-2.34,11.59-3.39,3.33-7.4,3.39-11.67,2-4.83-1.57-9.69-3.06-14.95-4.71Zm-57.32-32.2c3.56,1.2,6.17,2.13,8.81,2.96,12.72,4,13.43,5.32,8.49,17.67-10.62,26.51-29.3,46.33-52.28,62.53-2.35,1.66-4.74,3.27-7.56,5.21,1.13.14,1.58.3,2,.24,2.14-.31,4.29-.6,6.42-1.02,38.14-7.56,66.57-27.31,81.13-64.53,1.98-5.07,4.67-6.28,9.88-4.72,4.98,1.49,9.92,3.13,15.73,4.97-6.73-22.01-13.19-43.14-19.8-64.76-17.81,13.99-34.96,27.45-52.81,41.46Z"/>
  <path class="cls-1" d="m391.06,175.17v-12.49h42.28v12.49h-42.28Z"/>
  <path class="cls-1" d="m201.61,396.41v12.39h-42.43v-12.39h42.43Z"/>
</svg>