<?xml version="1.0" encoding="UTF-8"?>
<svg id="Layer_1" data-name="Layer 1" xmlns="http://www.w3.org/2000/svg" viewBox="0 0 500 500">
  <defs>
    <style>
      .cls-1 {
        fill: #fff;
      }

      .cls-2 {
        fill: #cbdc13;
      }

      .cls-3 {
        fill: #053a65;
      }
    </style>
  </defs>
  <g>
    <path class="cls-1" d="m329.63,234.65c-34.03,0-68.06-.08-102.09.07-6.82.03-12.87-.98-16.03-7.73-3.07-6.56-.54-12.14,3.59-17.54,11.73-15.35,23.45-30.73,34.65-46.46,2.6-3.65,4.36-8.73,4.44-13.18.42-24.96.78-49.94.06-74.89-.88-30.47,23.88-59.67,59.35-59.47,38.43.22,76.87-.07,115.31.08,34.22.13,59.23,25.17,59.39,59.39.15,33.29-.28,66.58.12,99.86.43,35.54-28.83,60.93-60.37,60.07-32.78-.89-65.61-.2-98.41-.2Zm-78.37-27.23c17.83,0,33.68,0,49.52,0,41.85,0,83.69-.18,125.54.07,22.61.13,34.84-15.83,34.37-34.12-.84-32.76-.17-65.56-.27-98.34-.06-19.3-12.33-31.59-31.62-31.64-38.42-.09-76.84-.06-115.26.02-3.38,0-6.9.27-10.11,1.22-14.08,4.18-21.76,15.71-21.83,32.72-.1,25.93-.24,51.87.1,77.8.1,7.99-1.69,14.62-6.82,20.91-7.85,9.63-15,19.84-23.62,31.36Z"/>
    <path class="cls-1" d="m176.94,266.39c33.78,0,67.57.09,101.35-.07,7.02-.03,13.47.72,16.74,7.81,3.18,6.89.11,12.6-4.12,18.15-11.87,15.55-23.67,31.17-35.14,47.02-2.09,2.9-3.48,7-3.52,10.57-.3,25.21-.83,50.44,0,75.62,1.05,31.45-24.41,60.57-60.2,60.16-37.94-.43-75.89-.01-113.84-.12-35.14-.1-59.94-25-60.04-60.22-.1-33.04-.11-66.08,0-99.12.13-34.83,24.85-59.62,59.6-59.75,33.05-.13,66.1-.03,99.15-.03Zm78.23,27.23c-5.8,0-9.87,0-13.93,0-53.59,0-107.18-.06-160.77.03-22.16.04-34.38,12.12-34.41,33.72-.05,32.54-.06,65.08,0,97.62.04,20.71,12.03,32.65,32.82,32.68,36.95.06,73.92-.68,110.85.28,21.93.57,35.72-14.16,35.31-35.44-.48-24.7.29-49.43-.3-74.12-.24-10.17,2.38-18.37,8.9-26.11,7.31-8.68,13.7-18.13,21.54-28.65Z"/>
    <path class="cls-1" d="m358.91,365.17c-27.29-32.95-15.85-67.21,3.14-84.02,22.96-20.33,56.51-19.81,78.67,1.12,20.04,18.93,26.9,53.62,2,82.5,1.47,1.12,2.86,2.31,4.37,3.32,26.48,17.71,40.72,42.21,41.2,74.31.14,9.3.15,18.6-.01,27.9-.18,9.81-5.27,15.18-14.97,15.2-48.48.11-96.95.12-145.43-.01-9.23-.02-14.57-5.56-14.53-14.75.06-13.93-.78-28.04,1.06-41.76,3.79-28.26,19.95-48.78,44.49-63.8Zm100.86,92.29c3.85-30.95-6.76-54.64-29.89-67.57-20.79-11.62-47.52-9.49-66.15,5.28-18.4,14.58-27.75,41.44-21.56,62.29h117.6Zm-28.78-132.78c.14-16.89-13.04-30.53-29.81-30.87-16.51-.33-30.47,13.35-30.66,30.05-.19,16.78,13.2,30.6,29.85,30.78,16.76.18,30.49-13.26,30.63-29.96Z"/>
    <path class="cls-1" d="m63.88,114.22c-25.21-29.43-18.02-64.27,2.37-83.16,21.61-20.01,54.87-20.67,77.07-1.7,19.78,16.91,31.84,51.69,5.22,83.96,8.39,7.77,17.47,14.85,24.91,23.37,13.52,15.46,19.84,33.98,19.73,54.61-.05,9.54.09,19.09-.03,28.63-.12,9.31-5.27,14.65-14.51,14.67-48.71.08-97.43.07-146.14,0-7.67-.01-13.72-4.3-13.91-11.32-.53-20.22-2.71-40.72,4.28-60.36,6.96-19.55,19.53-34.79,37.06-45.92,1.21-.77,2.35-1.65,3.94-2.78Zm-17.29,92.77h118.52c2.59-25.72-2.35-48.25-24.35-63.84-20.66-14.63-42.9-15.99-64.81-3.41-25.67,14.74-32.65,38.59-29.36,67.25Zm28.91-133.61c-.05,16.93,13.2,30.37,30.04,30.44,16.79.08,30.36-13.33,30.45-30.1.1-16.91-13.17-30.27-30.09-30.32-17.06-.05-30.35,13.05-30.4,29.98Z"/>
    <path class="cls-1" d="m371.26,59.75c23.17-.05,41.89,18.18,43.22,42.1,1.2,21.54-16.55,41.87-38.66,44.28-9.8,1.07-17.05-3.55-18.25-11.61-1.2-8.08,4.35-14.24,14.34-15.91,10.34-1.72,16.21-8.89,14.82-18.09-1.24-8.2-9.06-13.92-17.64-12.9-7.48.89-11.79,5.9-13.58,15.81-2.07,11.46-12.13,17.3-20.54,11.13-3.39-2.49-6.42-7.8-6.61-11.96-1.04-22.74,19.47-42.78,42.9-42.83Z"/>
    <path class="cls-1" d="m384.98,176.76c.01,7.7-6.29,13.83-14.05,13.67-7.35-.15-13.41-6.28-13.43-13.58-.03-7.65,6.31-13.81,14.06-13.68,7.49.13,13.41,6.12,13.43,13.58Z"/>
    <path class="cls-1" d="m135.14,332.64c14.18,0,28.37-.06,42.55.02,9.2.06,15.13,5.18,15.44,13.08.34,8.41-5.28,14.31-14.9,14.39-28.61.23-57.22.22-85.83,0-9.45-.07-15.54-6.2-15.22-14.23.33-8.14,6.42-13.21,16.14-13.26,13.94-.06,27.88-.02,41.82-.01Z"/>
    <path class="cls-1" d="m113.11,391.49c7.08,0,14.15-.14,21.23.04,8.34.2,14.33,5.77,14.64,13.29.33,7.94-5.44,14.13-14.28,14.33-14.39.31-28.79.3-43.18,0-8.46-.17-14.24-6.06-14.35-13.6-.11-7.73,6.13-13.81,14.72-14.02,7.07-.17,14.15-.04,21.23-.04Z"/>
  </g>
  <path class="cls-3" d="m459.76,457.46h-117.6c-6.19-20.86,3.17-47.71,21.56-62.29,18.63-14.77,45.36-16.9,66.15-5.28,23.13,12.93,33.74,36.62,29.89,67.57Z"/>
  <path class="cls-3" d="m430.98,324.68c-.13,16.71-13.87,30.15-30.63,29.96-16.65-.18-30.04-13.99-29.85-30.78.19-16.7,14.15-30.39,30.66-30.05,16.77.34,29.95,13.98,29.81,30.87Z"/>
  <path class="cls-2" d="m46.59,206.99c-3.29-28.66,3.69-52.51,29.36-67.25,21.91-12.58,44.16-11.22,64.81,3.41,22,15.58,26.94,38.12,24.35,63.84H46.59Z"/>
  <path class="cls-2" d="m75.5,73.37c.05-16.93,13.34-30.03,30.4-29.98,16.92.05,30.19,13.42,30.09,30.32-.09,16.77-13.66,30.17-30.45,30.1-16.84-.08-30.09-13.51-30.04-30.44Z"/>
</svg>