<?xml version="1.0" encoding="UTF-8"?>
<svg id="Layer_1" data-name="Layer 1" xmlns="http://www.w3.org/2000/svg" viewBox="0 0 500 500">
  <defs>
    <style>
      .cls-1 {
        fill: #fff;
      }

      .cls-2 {
        fill: #cbdc13;
      }

      .cls-3 {
        fill: #053a65;
      }
    </style>
  </defs>
  <path class="cls-1" d="m412.45,12.7c8.51,2.22,16.9,4.66,23.96,10.32,15.43,12.38,22.22,28.51,19.19,47.9-3.16,20.2-15.12,33.84-34.63,40.22-4.25,1.39-5.3,3.21-5.22,7.38.26,13.6.1,27.22.1,40.83v5.57h-87v36.67h-19.71v-56.03h86.72c0-10.76.08-21.05-.15-31.34-.02-.82-2.04-1.92-3.32-2.33-19.08-6.13-31.42-18.67-35.79-38.34-6.15-27.67,12.32-54.93,40.29-59.99.88-.16,1.71-.57,2.56-.86,4.33,0,8.66,0,12.99,0Zm-7.03,81.09c16.74.31,30.73-13.02,31.14-29.67.43-17.17-13-31.25-30.19-31.66-16.54-.39-30.78,13.24-31.09,29.78-.32,17.41,12.88,31.23,30.13,31.55Z"/>
  <path class="cls-1" d="m117.3,12.7c7.62,3.14,16.08,5.08,22.71,9.66,16.89,11.69,23.76,28.77,20.51,48.91-3.29,20.37-15.6,33.9-35.34,40.15-3.54,1.12-4.51,2.53-4.42,6.03.24,9.1.08,18.21.08,27.76h86.76v56.26h-19.36v-36.25h-87.34c0-2.15,0-3.79,0-5.43,0-14.38-.04-28.77.04-43.15.01-2.61-.44-4.02-3.42-4.89-24.12-7.08-38.28-27.55-36.88-52.86,1.23-22.27,18.48-40.9,42.05-45.45.57-.11,1.08-.5,1.63-.76,4.33,0,8.66,0,12.99,0Zm24.18,50.77c.11-17.01-13.34-30.76-30.33-31.01-16.74-.25-30.84,13.61-30.97,30.43-.12,16.98,13.39,30.73,30.39,30.9,16.99.18,30.8-13.37,30.91-30.33Z"/>
  <path class="cls-1" d="m264.88,12.7c8.36,2.17,16.62,4.52,23.61,10.01,15.86,12.48,22.76,28.87,19.53,48.62-3.29,20.17-15.4,33.71-34.95,39.93-4.01,1.28-4.79,3.02-4.78,6.74.13,25.98.07,51.97.07,77.95v5.66h-19.96c0-2.06,0-3.86,0-5.67,0-26.29-.02-52.59.03-78.88,0-2.62-.08-4.36-3.43-5.33-23.91-6.93-38.17-27.42-36.84-52.41,1.2-22.66,18.32-41.3,42.1-45.87.57-.11,1.09-.49,1.63-.75,4.33,0,8.66,0,12.99,0Zm-7.09,81.09c16.76.37,30.84-12.96,31.22-29.55.4-17.31-12.78-31.24-30.04-31.76-16.45-.5-30.86,13.19-31.22,29.66-.38,17.38,12.81,31.28,30.04,31.66Z"/>
  <path class="cls-1" d="m213.83,488.4c0-2.5,0-4.16,0-5.82,0-31.55-.03-63.09.06-94.64,0-2.85-.7-4.8-2.98-6.71-25.79-21.69-51.51-43.47-77.18-65.31-10.23-8.7-20.33-17.57-30.41-26.44-1.06-.93-2.29-2.44-2.3-3.69-.14-21.16-.1-42.33-.1-63.85h314.7c.07,1.47.22,3.09.22,4.72.02,18.71-.08,37.42.09,56.13.03,3.44-1.04,5.65-3.64,7.86-35.57,30.21-71.07,60.5-106.46,90.91-1.57,1.35-2.75,4.06-2.78,6.15-.21,20.1-.2,40.2-.04,60.31.02,3.13-.96,4.5-3.84,5.71-25.67,10.86-51.24,21.96-76.89,32.85-2.41,1.03-5.21,1.15-8.44,1.82Zm-92.94-246.81c0,12.08-.05,23.94.09,35.79.01.97,1.14,2.1,2.01,2.85,10.57,9.05,21.11,18.13,31.85,26.98,1.71,1.41,4.34,2.39,6.55,2.39,64.64.13,129.28.12,193.92,0,2.22,0,4.88-.93,6.58-2.33,10.63-8.74,21.06-17.71,31.49-26.69,1.08-.93,2.38-2.39,2.4-3.62.18-11.71.11-23.41.11-35.38H120.89Zm112.99,217.64c1.27-.31,2.03-.39,2.69-.68,14.46-6.16,28.88-12.43,43.39-18.46,2.83-1.18,2.94-3.05,2.94-5.49-.04-18.56.05-37.13-.09-55.69-.03-3.27,1.02-5.41,3.5-7.47,15.18-12.7,30.23-25.55,45.35-38.33,1.1-.93,2.37-1.66,3.56-2.48-.31-.32-.63-.63-.94-.95h-151.87l-1.02,1.28c.96.46,2.07.75,2.86,1.41,15.01,12.66,29.92,25.45,45.03,37.98,3.4,2.82,4.77,5.71,4.73,10.2-.24,24.28-.11,48.57-.11,72.86v5.82Z"/>
  <path class="cls-2" d="m405.42,93.79c-17.25-.31-30.46-14.14-30.13-31.55.31-16.54,14.54-30.17,31.09-29.78,17.19.41,30.61,14.49,30.19,31.66-.41,16.65-14.4,29.98-31.14,29.67Z"/>
  <path class="cls-2" d="m141.49,63.47c-.1,16.95-13.92,30.5-30.91,30.33-17-.18-30.51-13.92-30.39-30.9.12-16.83,14.22-30.68,30.97-30.43,16.99.25,30.43,14,30.33,31.01Z"/>
  <path class="cls-3" d="m257.79,93.79c-17.23-.38-30.42-14.28-30.04-31.66.36-16.47,14.77-30.16,31.22-29.66,17.26.52,30.44,14.46,30.04,31.76-.38,16.6-14.46,29.92-31.22,29.55Z"/>
  <path class="cls-3" d="m233.88,459.23v-5.82c0-24.29-.13-48.57.11-72.86.04-4.49-1.32-7.38-4.73-10.2-15.12-12.53-30.02-25.32-45.03-37.98-.79-.67-1.9-.95-2.86-1.41l1.02-1.28h151.87c.31.32.63.63.94.95-1.19.82-2.46,1.55-3.56,2.48-15.12,12.78-30.17,25.63-45.35,38.33-2.47,2.07-3.52,4.21-3.5,7.47.15,18.56.05,37.12.09,55.69,0,2.43-.1,4.31-2.94,5.49-14.52,6.03-28.93,12.3-43.39,18.46-.66.28-1.42.36-2.69.68Z"/>
</svg>