<?xml version="1.0" encoding="UTF-8"?>
<svg id="Layer_1" data-name="Layer 1" xmlns="http://www.w3.org/2000/svg" viewBox="0 0 500 500">
  <defs>
    <style>
      .cls-1 {
        fill: #fff;
      }

      .cls-2 {
        fill: #cbdc13;
      }

      .cls-3 {
        fill: #053a65;
      }
    </style>
  </defs>
  <path class="cls-1" d="m244.29,298.03c-19.26,16.93-41.1,21.92-65.8,13.89-.93,1.4-1.83,2.58-2.53,3.87-11.92,21.59-23.75,43.24-35.79,64.76-1.74,3.1-1.7,4.94.78,7.73,15.27,17.2,18.04,41.63,7.32,61.61-10.95,20.4-32.81,31.17-56.53,27.84-21.44-3.01-39.6-19.93-44.22-42.1-4.22-20.23,1.41-37.88,16.78-51.7,15.39-13.84,33.5-17.01,53.25-11.22,1.6.47,3.14,1.15,5.27,1.94,13.13-23.79,26.2-47.46,39.32-71.23-25.7-22.64-31.89-49.57-18.26-81.4-15.76-11.57-31.68-23.26-47.94-35.19-12.42,12.14-27.3,17.27-44.38,14.54-13.22-2.12-23.91-8.94-31.76-19.84-15.65-21.72-11.02-52.02,10.06-68.21,19.43-14.92,53.02-15.72,73.31,14.43,10.47-4.22,21.07-8.48,31.66-12.77,35.06-14.19,70.09-28.47,105.22-42.48,4.48-1.79,6.11-3.8,5.93-8.86-.92-26.34,18.89-47.24,45.01-48.05,25.14-.78,46.18,19.18,47.32,44.89.85,19.08-11.44,37.48-29.74,44.54-18.43,7.11-39.8,1.68-52.08-13.82-2.95-3.72-5.12-4.12-9.29-2.41-44.42,18.16-88.89,36.17-133.43,54.03-3.84,1.54-4.72,3.4-4.76,7.4-.09,7.06-1.3,14.11-2.17,22.46,15.11,11.06,31.46,23.02,47.76,34.95,32.65-31.57,84.41-22.38,104.23,18.58,14.86-4.33,29.81-8.69,44.76-13.03,30.36-8.8,60.72-17.65,91.12-26.31,3.82-1.09,5.25-2.54,5.22-6.86-.16-23.7,18.51-43.44,42.03-44.96,23.3-1.51,44.42,15.52,47.2,38.05,3.04,24.66-12.19,47.2-36.15,50.47-9.36,1.28-11.03,5.43-12.84,12.9-9.17,38.05-18.75,76-28.47,113.92-1.14,4.46-.03,6.1,3.81,8.09,23.14,11.94,34.28,38.32,27.05,63.24-7.1,24.48-30.53,40.66-56.34,38.91-24.94-1.69-46.07-21.44-49.54-46.6-1.25-9.08-.17-18,3-26.7.58-1.59.15-4.59-.99-5.62-30.85-27.71-61.84-55.25-92.83-82.81-.4-.36-.97-.54-1.53-.84Zm180.89-76.29c-6.07-5.67-11.79-10.28-16.54-15.73-2.56-2.93-4.36-3.57-7.96-2.51-33.74,9.97-67.53,19.75-101.3,29.58-11.88,3.46-23.76,6.9-35.9,10.42,1.43,12.72-.07,24.62-5.66,35.61-2.02,3.96-1.01,5.81,1.92,8.37,20.84,18.25,41.54,36.65,62.29,54.99,9.72,8.6,19.46,17.18,29.5,26.03,11.5-11.24,25.24-16.47,41.15-16.54,10.98-43.99,21.91-87.73,32.52-130.23Zm-270.29,30.43c-.02,25.05,20.19,45.53,45.05,45.63,25.28.1,45.79-20.17,45.92-45.4.13-25.13-20.38-45.59-45.68-45.57-25.01.02-45.27,20.3-45.29,45.34Zm235.26,190.42c19.92.15,36.5-16.22,36.53-36.07.03-19.7-16.06-36.05-35.73-36.3-20.13-.25-36.47,15.7-36.63,35.78-.16,20.18,15.76,36.44,35.83,36.6Zm-253.48-18.52c-.01-19.74-16.2-35.8-36.04-35.77-19.75.04-35.83,16.24-35.77,36.04.06,19.79,16.38,35.98,36.04,35.76,19.97-.22,35.79-16.15,35.78-36.04Zm-45.28-271.08c.3-16.82-13.55-31.23-30.39-31.63-17.55-.41-32,13.37-32.34,30.87-.34,17.12,13.57,31.55,30.73,31.87,17.58.33,31.69-13.39,32-31.11Zm326.47,26.87c.02,15.06,12.24,26.92,27.62,26.79,14.17-.11,25.99-12.18,26.02-26.57.03-15.02-11.81-27.02-26.7-27.07-14.87-.05-26.96,12-26.94,26.85Zm-100.26-117.46c.09-14.91-11.83-26.93-26.76-27-14.5-.06-26.72,11.95-26.86,26.4-.15,14.95,11.62,27.01,26.56,27.22,14.92.2,26.98-11.66,27.07-26.62Z"/>
  <path class="cls-3" d="m390.15,442.6c-20.07-.15-35.99-16.41-35.83-36.6.16-20.07,16.49-36.03,36.63-35.78,19.67.25,35.76,16.6,35.73,36.3-.03,19.85-16.61,36.23-36.53,36.07Z"/>
  <path class="cls-2" d="m136.67,424.08c.01,19.89-15.81,35.82-35.78,36.04-19.66.21-35.98-15.98-36.04-35.76-.06-19.8,16.02-36,35.77-36.04,19.84-.04,36.02,16.03,36.04,35.77Z"/>
  <path class="cls-3" d="m91.4,153c-.31,17.72-14.42,31.44-32,31.11-17.16-.32-31.07-14.75-30.73-31.87.35-17.5,14.79-31.28,32.34-30.87,16.84.39,30.69,14.8,30.39,31.63Z"/>
  <path class="cls-3" d="m417.87,179.87c-.02-14.85,12.07-26.89,26.94-26.85,14.9.05,26.74,12.05,26.7,27.07-.03,14.39-11.85,26.46-26.02,26.57-15.38.12-27.6-11.73-27.62-26.79Z"/>
  <path class="cls-2" d="m317.61,62.4c-.09,14.96-12.15,26.82-27.07,26.62-14.93-.2-26.71-12.27-26.56-27.22.15-14.46,12.37-26.47,26.86-26.4,14.93.07,26.85,12.09,26.76,27Z"/>
</svg>