<?xml version="1.0" encoding="UTF-8"?>
<svg id="Layer_2" data-name="Layer 2" xmlns="http://www.w3.org/2000/svg" viewBox="0 0 500 500">
  <defs>
    <style>
      .cls-1 {
        fill: #cbdc13;
      }
    </style>
  </defs>
  <path class="cls-1" d="m245.27,492.17c-2.93-1.1-6-1.92-8.77-3.33-12.83-6.51-19.11-21.11-15.12-34.73,4.1-13.99,17.08-22.78,31.69-21.48,13.39,1.2,24.76,12.24,26.39,25.63,1.79,14.7-6.42,27.82-20.3,32.41-1.48.49-2.96,1-4.43,1.5h-9.46Zm4.89-45.44c-8.66-.07-15.69,6.8-15.79,15.42-.1,8.57,6.9,15.72,15.46,15.81,8.58.09,15.69-6.89,15.8-15.48.11-8.58-6.87-15.69-15.47-15.76Z"/>
  <path class="cls-1" d="m370.92,250.08c0,17.97-.12,35.94.05,53.91.1,10.63-4.18,18.27-13.5,23.59-31.45,17.96-62.8,36.07-94.09,54.31-9.07,5.28-17.6,5.31-26.7,0-31.41-18.33-62.93-36.48-94.5-54.55-8.97-5.13-13.15-12.57-13.13-22.82.08-36.41.07-72.82,0-109.23-.02-10.05,4.08-17.43,12.89-22.47,31.69-18.16,63.35-36.39,94.9-54.79,8.93-5.21,17.37-5.23,26.28-.05,31.58,18.36,63.23,36.6,94.91,54.78,8.78,5.04,12.95,12.44,12.91,22.49-.08,18.28-.02,36.57-.02,54.85Zm-113.82,118.65c1.62-.75,2.19-.97,2.71-1.27,30.54-17.62,61.07-35.26,91.63-52.84,3.87-2.22,5.33-5.42,5.32-9.75-.05-36.56-.06-73.12,0-109.68,0-4.54-1.6-7.76-5.64-10.05-13.69-7.77-27.32-15.64-40.88-23.63-2.36-1.39-4.07-1.3-6.41.06-30.89,17.95-61.85,35.79-92.78,53.68-.98.57-1.84,1.33-3.08,2.25,13.13,7.58,25.86,14.8,38.43,22.27,2.66,1.58,4.54,1.59,7.24.02,24.06-14.05,48.22-27.93,72.36-41.84,1.22-.7,2.44-1.51,3.77-1.9,3.38-.99,6.32-.17,8.17,2.96,1.93,3.28,1.37,6.41-1.42,8.95-1.14,1.04-2.6,1.75-3.96,2.54-23.71,13.71-47.39,27.48-71.19,41.04-3.13,1.78-4.39,3.64-4.37,7.33.15,34.82.09,69.65.09,104.48v5.38Zm-113.63-172.06c-.11,1.68-.2,2.45-.2,3.21,0,34.99.02,69.97-.04,104.96,0,4.78,1.96,7.88,6.11,10.26,29.64,16.98,59.2,34.1,88.79,51.16,1.31.75,2.68,1.39,4.27,2.22.23-1.11.46-1.7.46-2.29.02-36.4.07-72.81-.09-109.21,0-1.57-1.55-3.74-2.99-4.6-12.03-7.18-24.2-14.11-36.35-21.1-.73-.42-1.61-.58-2.74-.98,0,8.76.03,17.1-.01,25.45-.03,5.77-2.84,9.23-7.27,9.14-4.32-.09-6.87-3.32-6.89-8.92-.04-10.24.07-20.49-.1-30.73-.03-1.62-.73-4.01-1.91-4.72-13.35-7.97-26.86-15.67-41.04-23.86Zm149.21-45.23c-13.17-7.59-25.59-14.69-37.96-21.9-3.78-2.2-7.09-1.38-10.63.68-17.27,10.07-34.61,20.02-51.92,30.02-13.73,7.93-27.46,15.87-41.67,24.08,13.42,7.76,26.39,15.16,39.24,22.78,2.67,1.59,4.6,1.49,7.27-.06,30.48-17.73,61.04-35.33,91.57-52.97,1.18-.68,2.31-1.47,4.1-2.63Z"/>
  <path class="cls-1" d="m249.83,67.44c-16.37-.05-29.69-13.46-29.66-29.83.03-16.37,13.4-29.75,29.75-29.78,16.56-.03,30.11,13.62,29.89,30.1-.23,16.47-13.52,29.56-29.98,29.5Zm.08-14.19c8.63.04,15.67-6.9,15.72-15.51.06-8.57-6.97-15.68-15.55-15.72-8.59-.04-15.66,6.95-15.72,15.55-.06,8.6,6.93,15.65,15.54,15.69Z"/>
  <path class="cls-1" d="m68.01,173.56c-16.42.01-29.81-13.26-29.86-29.61-.06-16.49,13.64-30.16,30.07-30.01,16.4.16,29.58,13.53,29.54,29.97-.04,16.47-13.25,29.64-29.74,29.65Zm15.56-29.64c.04-8.65-6.88-15.72-15.47-15.79-8.49-.07-15.7,7.05-15.76,15.58-.07,8.62,6.89,15.63,15.55,15.67,8.73.04,15.64-6.77,15.68-15.46Z"/>
  <path class="cls-1" d="m432.17,173.56c-16.52.07-29.83-13.03-29.93-29.46-.1-16.67,13.28-30.21,29.82-30.17,16.29.05,29.76,13.53,29.79,29.82.03,16.37-13.28,29.73-29.68,29.81Zm-.21-14.19c8.67.02,15.68-6.91,15.7-15.52.02-8.51-7.12-15.7-15.63-15.73-8.57-.03-15.58,7-15.61,15.64-.03,8.72,6.81,15.58,15.53,15.6Z"/>
  <path class="cls-1" d="m97.76,356.07c.04,16.42-13.18,29.82-29.56,29.97-16.41.15-30.12-13.55-30.05-30.03.07-16.36,13.45-29.61,29.88-29.59,16.51.02,29.69,13.17,29.73,29.65Zm-29.17-15.45c-8.75-.25-15.91,6.34-16.24,14.94-.33,8.68,6.83,16.19,15.53,16.29,8.34.09,15.45-6.75,15.69-15.1.26-8.8-6.32-15.88-14.98-16.13Z"/>
  <path class="cls-1" d="m432.2,326.42c16.41.09,29.7,13.45,29.65,29.83-.05,16.28-13.55,29.76-29.83,29.79-16.52.03-29.9-13.54-29.79-30.21.11-16.42,13.44-29.5,29.96-29.41Zm-15.78,29.78c.02,8.64,7.04,15.69,15.6,15.66,8.5-.03,15.65-7.22,15.63-15.73-.02-8.61-7.02-15.54-15.7-15.52-8.74.02-15.56,6.86-15.54,15.59Z"/>
  <path class="cls-1" d="m58.97,249.92c0-16.69-.01-33.38.02-50.07,0-1.72-.03-3.52.47-5.13,1.06-3.41,3.67-5.19,7.18-4.91,3.48.28,5.77,2.37,6.39,5.92.21,1.23.12,2.51.12,3.77,0,33.7,0,67.39,0,101.09,0,.63.02,1.26-.01,1.89-.2,4.71-3.06,7.83-7.1,7.79-4.01-.04-6.83-3.19-7.06-7.91-.05-1.1-.02-2.2-.02-3.31,0-16.38,0-32.75,0-49.13Z"/>
  <path class="cls-1" d="m426.84,250c0-17.01-.01-34.01,0-51.02,0-5.94,2.56-9.26,7.02-9.27,4.45,0,7.15,3.4,7.15,9.24.02,34.01.02,68.02,0,102.04,0,7-4.54,10.92-9.86,8.63-3.58-1.54-4.35-4.55-4.34-8.13.06-17.16.03-34.33.03-51.49Z"/>
  <path class="cls-1" d="m295.16,56.37c2.66,1.17,4.45,1.76,6.06,2.68,29.04,16.71,58.07,33.46,87.08,50.22,5.11,2.96,6.62,6.92,4.28,10.79-2.33,3.86-6.38,4.38-11.57,1.39-28.89-16.66-57.77-33.34-86.65-50.04-1.22-.7-2.95-1.34-3.37-2.42-.91-2.31-2.08-5.24-1.34-7.27.8-2.2,3.64-3.66,5.5-5.36Z"/>
  <path class="cls-1" d="m295.19,443.69c-1.98-1.79-4.73-3.18-5.46-5.27-.72-2.08.24-5.01,1.15-7.3.48-1.21,2.38-1.92,3.73-2.7,28.59-16.55,57.2-33.08,85.8-49.61,1.22-.71,2.44-1.54,3.77-1.91,3.56-1,6.63-.15,8.49,3.24,1.86,3.39.99,6.41-1.86,8.85-.95.81-2.08,1.41-3.17,2.03-28.47,16.44-56.95,32.89-85.44,49.29-2.01,1.15-4.18,2.02-7.02,3.37Z"/>
  <path class="cls-1" d="m112.92,124.29c-1.99-1.72-4.86-3.09-5.7-5.25-.77-2.01.29-5,1.23-7.27.5-1.21,2.4-1.91,3.75-2.69,28.6-16.54,57.21-33.06,85.82-49.58,1.22-.71,2.45-1.46,3.77-1.93,3.45-1.22,6.26-.04,8.18,2.9,1.97,3.02,1.55,6.08-.96,8.61-1.19,1.2-2.77,2.06-4.26,2.92-28.33,16.38-56.67,32.74-85.02,49.07-1.87,1.08-3.91,1.86-6.81,3.22Z"/>
  <path class="cls-1" d="m112.78,375.73c2.67,1.19,4.44,1.8,6.04,2.72,28.91,16.64,57.79,33.31,86.68,49.98.55.31,1.09.63,1.62.97,4.02,2.68,5.13,6.51,2.94,10.06-2.06,3.33-6,4.36-9.91,2.21-5.79-3.18-11.45-6.6-17.17-9.9-23.57-13.61-47.14-27.21-70.71-40.83-1.35-.78-3.25-1.47-3.76-2.68-.96-2.27-2.04-5.24-1.29-7.26.81-2.17,3.66-3.57,5.57-5.27Z"/>
</svg>