<?xml version="1.0" encoding="UTF-8"?>
<svg id="Layer_2" data-name="Layer 2" xmlns="http://www.w3.org/2000/svg" viewBox="0 0 500 500">
  <defs>
    <style>
      .cls-1 {
        fill: #cbdc13;
      }
    </style>
  </defs>
  <path class="cls-1" d="m186.87,487.77c-9.75-4.02-13.39-11.47-12.67-21.73.41-5.85-.02-11.76.11-17.64.07-2.94-1.15-4.3-3.9-5.37-9.06-3.51-18.03-7.27-26.93-11.15-2.51-1.1-4.23-.98-6.16,1.02-5.05,5.23-10.21,10.36-15.41,15.44-7.73,7.56-17.38,7.57-25.08-.06-10.34-10.23-20.63-20.52-30.86-30.86-7.69-7.78-7.71-17.29-.11-25.1,5.07-5.21,10.22-10.36,15.44-15.42,1.97-1.91,2.17-3.6,1.06-6.15-3.96-9.04-7.78-18.15-11.33-27.36-1.04-2.7-2.51-3.49-5.15-3.45-7.12.1-14.24.09-21.36.02-11.07-.1-18.03-6.94-18.1-17.96-.1-14.55-.11-29.1,0-43.64.09-10.84,6.91-17.55,17.81-17.7,7.12-.1,14.24-.12,21.36.02,3.11.06,4.53-1.17,5.65-4.14,3.39-8.94,7.12-17.75,11-26.49,1.2-2.7,1.08-4.48-1.06-6.53-5.14-4.92-10.15-9.99-15.12-15.08-7.83-8.01-7.85-17.47.03-25.44,10.12-10.24,20.3-20.41,30.53-30.53,8.13-8.05,17.53-7.94,25.76.19,4.84,4.79,9.74,9.52,14.41,14.48,2.27,2.41,4.2,2.69,7.28,1.29,8.42-3.82,16.96-7.43,25.65-10.61,3.6-1.32,4.75-3.13,4.62-6.76-.23-6.65-.13-13.31-.05-19.96.15-11.74,6.84-18.32,18.6-18.35,14.08-.03,28.17-.04,42.25,0,11.61.03,18.42,6.85,18.5,18.48.04,5.42.05,10.83,0,16.25-.06,5.43-2.64,8.64-6.9,8.71-4.27.08-6.95-3.14-7-8.5-.04-5.42-.1-10.84.02-16.25.07-3.3-1.22-4.82-4.63-4.8-14.08.07-28.17.08-42.25,0-3.41-.02-4.73,1.42-4.69,4.73.09,6.96.08,13.93,0,20.89-.1,10.01-3.89,14.87-13.17,18.38-8.65,3.27-17.2,6.86-25.63,10.67-8.35,3.77-14.99,2.91-21.58-3.56-5.08-4.99-10.14-10-15.08-15.12-2.35-2.44-4.26-2.39-6.62,0-9.89,10.02-19.85,19.98-29.88,29.87-2.47,2.43-2.21,4.34.15,6.62,5.11,4.95,10.13,10.01,15.11,15.09,6.44,6.57,7.24,13.19,3.44,21.6-3.87,8.57-7.48,17.27-10.84,26.06-3.17,8.31-8.06,12.37-16.88,12.62-7.27.21-14.55.18-21.82.02-3.85-.09-5.16,1.51-5.13,5.26.13,13.62.14,27.24,0,40.86-.04,3.98,1.38,5.59,5.43,5.48,7.27-.2,14.55-.13,21.82-.02,7.91.11,13.34,4.21,16.24,11.53,3.76,9.46,7.64,18.87,11.69,28.21,3.11,7.19,2.28,13.96-3.19,19.71-5.12,5.38-10.39,10.62-15.74,15.77-2.55,2.45-2.71,4.39-.09,6.96,9.94,9.76,19.78,19.61,29.55,29.55,2.56,2.6,4.49,2.51,6.96-.07,4.81-5.03,9.8-9.9,14.75-14.79,6.62-6.55,13.2-7.52,21.55-3.81,8.73,3.88,17.57,7.56,26.49,10.99,8.26,3.19,12.26,8.19,12.46,17.02.16,7.27.12,14.55.02,21.82-.05,3.52,1.3,4.95,4.95,4.91,13.93-.14,27.86-.13,41.79,0,3.71.03,4.9-1.57,4.84-5.04-.12-7.27-.1-14.55-.01-21.82.1-8.34,4.41-13.84,12.12-16.79,9.07-3.46,18.06-7.18,26.93-11.13,7.9-3.53,14.6-2.75,20.85,3.3,5.12,4.95,10.22,9.93,15.08,15.12,2.83,3.02,4.88,2.7,7.63-.13,9.51-9.74,19.16-19.37,28.89-28.89,2.69-2.64,2.91-4.63.09-7.29-5.06-4.78-9.92-9.78-14.8-14.74-6.52-6.63-7.4-13.26-3.66-21.58,3.92-8.72,7.56-17.57,10.97-26.5,3.1-8.09,8.43-12.22,17.11-12.31,7.27-.07,14.55-.08,21.82,0,3.28.04,4.78-1.18,4.76-4.64-.1-14.08-.08-28.17-.01-42.25.01-2.72-.64-4.6-3.76-4.6-11.27,0-22.55,0-34.54,0,0,6.16.01,11.97,0,17.77-.02,10.75-4.15,14.89-14.87,14.92-6.47.02-12.95,0-19.67,0-3.71,34.69-19.65,61.55-49.31,79.52-22.86,13.85-47.69,17.41-73.73,11.7-51.73-11.35-85.6-61.83-77.05-115.07,8.82-54.88,64.27-96.35,125.13-80.99,0-6.42-.03-12.73,0-19.05.04-5.43,2.64-8.6,6.93-8.57,4.28.03,6.92,3.23,6.97,8.64.06,6.34.02,12.69.01,19.04-.01,12.2-6,16.85-17.8,13.82-38.38-9.84-78.36,6.66-97.3,41.07-16.42,29.84-16.08,60.2,2.27,88.94,18.37,28.76,45.5,42.65,79.84,40.32,42.88-2.9,75.97-36.1,79.71-79.09.96-11.08,4.4-14.19,15.69-14.21,6.16,0,12.33,0,19.23,0,0-6.37-.01-12.33,0-18.29.03-10.37,3.97-14.39,14.23-14.42,11.14-.03,22.29-.05,33.43,0,11.81.06,18.43,6.68,18.46,18.41.03,14.24.04,28.48,0,42.72-.03,11.31-6.88,18.11-18.26,18.2-6.96.05-13.93.11-20.89-.04-2.88-.06-4.4.86-5.49,3.69-3.5,9.06-7.23,18.04-11.15,26.93-1.2,2.72-.97,4.5,1.15,6.53,5.14,4.92,10.14,10,15.13,15.07,7.64,7.77,7.76,17.42.19,25.08-10.33,10.46-20.72,20.86-31.19,31.19-7.54,7.44-17.18,7.44-24.75.09-5.22-5.07-10.38-10.2-15.41-15.45-2.05-2.13-3.84-2.3-6.54-1.11-8.89,3.92-17.88,7.62-26.92,11.17-2.54,1-3.74,2.21-3.67,5.02.15,6.03-.27,12.09.11,18.1.67,10.32-3.06,17.71-12.97,21.51h-53.86Z"/>
  <path class="cls-1" d="m296.28,124.01v63.27h62.93v-63.27c-4.82,0-9.42.07-14.01-.02-5.29-.1-8.14-2.52-8.22-6.77-.08-4.39,2.96-7.03,8.4-7.11,5.26-.08,10.52-.13,15.78.01,7.71.21,12.16,4.53,12.2,12.2.11,22.28.11,44.56,0,66.83-.04,7.66-4.46,12.21-12.16,12.26-22.28.15-44.56.14-66.83,0-7.81-.05-12.2-4.37-12.24-12.11-.14-22.43-.14-44.87,0-67.3.05-7.53,4.41-11.67,11.96-11.89,5.41-.16,10.83-.13,16.24,0,4.86.11,7.71,2.7,7.81,6.76.1,4.28-2.78,6.96-7.9,7.09-4.47.11-8.95.02-13.97.02Z"/>
  <path class="cls-1" d="m431.72,68.31c9.43,0,18.86-.05,28.29.01,9.4.06,13.62,4.27,13.64,13.61.04,18.86.04,37.72,0,56.58-.02,9.58-4.25,13.74-13.97,13.75-18.71.03-37.41.03-56.12,0-9.74-.02-13.81-4.07-13.84-13.85-.05-18.86-.06-37.72,0-56.58.03-9.43,4.16-13.46,13.69-13.51,9.43-.05,18.86-.01,28.29-.01Zm27.71,69.83v-55.62h-55.38v55.62h55.38Z"/>
  <path class="cls-1" d="m169.1,300.2c.07-24.79,20.08-44.72,44.89-44.69,24.79.03,44.82,20.03,44.86,44.78.04,24.83-20.51,45.31-45.19,45.03-24.81-.28-44.62-20.34-44.56-45.13Zm13.92.37c.08,17.11,14.17,31.06,31.12,30.84,17.14-.22,30.92-14.22,30.77-31.25-.15-17.17-13.97-30.78-31.19-30.72-17.14.07-30.79,13.9-30.7,31.13Z"/>
  <path class="cls-1" d="m378.23,41.1c0,5.73.09,11.45-.02,17.18-.14,7.1-4.55,11.54-11.69,11.61-11.3.11-22.59.1-33.89.01-7.42-.06-11.92-4.48-11.99-11.81-.11-11.3-.1-22.59,0-33.89.07-7.3,4.62-11.82,11.96-11.89,11.3-.1,22.59-.11,33.89,0,7.13.07,11.58,4.54,11.72,11.61.12,5.72.02,11.45.02,17.18Zm-43.36-14.7v29.37h29.17v-29.37h-29.17Z"/>
  <path class="cls-1" d="m424.3,237.17c-5.73,0-11.45.09-17.18-.02-7.07-.15-11.44-4.19-11.56-11.19-.21-11.76-.21-23.52.02-35.28.13-6.64,4.57-10.99,11.25-11.1,11.6-.19,23.21-.19,34.81,0,6.65.11,11.23,4.37,11.4,11.03.3,11.91.31,23.83-.02,35.74-.19,6.68-4.79,10.65-11.54,10.8-5.72.12-11.45.03-17.18.02Zm14.6-14.17v-29.17h-29.24v29.17h29.24Z"/>
  <path class="cls-1" d="m265.78,250.31c0-5.57-.06-11.14.01-16.71.1-7.41,4.35-12,11.74-12.13,11.45-.2,22.91-.21,34.35.01,7.13.14,11.44,4.75,11.5,11.88.1,11.3.1,22.59,0,33.89-.06,7.21-4.3,11.66-11.5,11.77-11.6.18-23.21.19-34.82-.02-6.94-.12-11.05-4.59-11.28-11.53-.01-.31,0-.62,0-.93,0-5.42,0-10.83,0-16.25Zm14.12,14.49h29.34v-29.17h-29.34v29.17Z"/>
</svg>